<svg xmlns="http://www.w3.org/2000/svg" xmlns:xlink="http://www.w3.org/1999/xlink" width="2000" zoomAndPan="magnify" viewBox="0 0 1500 374.999991" height="500" preserveAspectRatio="xMidYMid meet" version="1.0"><defs><g/><clipPath id="d4b7bdecf8"><path d="M 197 106 L 228 106 L 228 136 L 197 136 Z M 197 106 " clip-rule="nonzero"/></clipPath><clipPath id="760961e579"><path d="M 16.527344 61.171875 L 241.042969 6.824219 L 315.332031 313.710938 L 90.816406 368.058594 Z M 16.527344 61.171875 " clip-rule="nonzero"/></clipPath><clipPath id="854f8eda16"><path d="M 16.527344 61.171875 L 241.042969 6.824219 L 315.332031 313.710938 L 90.816406 368.058594 Z M 16.527344 61.171875 " clip-rule="nonzero"/></clipPath><clipPath id="4cc4ff232a"><path d="M 90 108 L 104 108 L 104 121 L 90 121 Z M 90 108 " clip-rule="nonzero"/></clipPath><clipPath id="e85bd3aca4"><path d="M 16.527344 61.171875 L 241.042969 6.824219 L 315.332031 313.710938 L 90.816406 368.058594 Z M 16.527344 61.171875 " clip-rule="nonzero"/></clipPath><clipPath id="510a618305"><path d="M 16.527344 61.171875 L 241.042969 6.824219 L 315.332031 313.710938 L 90.816406 368.058594 Z M 16.527344 61.171875 " clip-rule="nonzero"/></clipPath><clipPath id="75f3b467a0"><path d="M 84 150 L 93 150 L 93 159 L 84 159 Z M 84 150 " clip-rule="nonzero"/></clipPath><clipPath id="dbe623c578"><path d="M 16.527344 61.171875 L 241.042969 6.824219 L 315.332031 313.710938 L 90.816406 368.058594 Z M 16.527344 61.171875 " clip-rule="nonzero"/></clipPath><clipPath id="aa51113553"><path d="M 16.527344 61.171875 L 241.042969 6.824219 L 315.332031 313.710938 L 90.816406 368.058594 Z M 16.527344 61.171875 " clip-rule="nonzero"/></clipPath><clipPath id="f8f106b6b4"><path d="M 95 123 L 119 123 L 119 147 L 95 147 Z M 95 123 " clip-rule="nonzero"/></clipPath><clipPath id="ae74eff66a"><path d="M 16.527344 61.171875 L 241.042969 6.824219 L 315.332031 313.710938 L 90.816406 368.058594 Z M 16.527344 61.171875 " clip-rule="nonzero"/></clipPath><clipPath id="407be227eb"><path d="M 16.527344 61.171875 L 241.042969 6.824219 L 315.332031 313.710938 L 90.816406 368.058594 Z M 16.527344 61.171875 " clip-rule="nonzero"/></clipPath><clipPath id="f1dde184db"><path d="M 122 121 L 136 121 L 136 135 L 122 135 Z M 122 121 " clip-rule="nonzero"/></clipPath><clipPath id="e51807d74d"><path d="M 16.527344 61.171875 L 241.042969 6.824219 L 315.332031 313.710938 L 90.816406 368.058594 Z M 16.527344 61.171875 " clip-rule="nonzero"/></clipPath><clipPath id="01c3b4209a"><path d="M 16.527344 61.171875 L 241.042969 6.824219 L 315.332031 313.710938 L 90.816406 368.058594 Z M 16.527344 61.171875 " clip-rule="nonzero"/></clipPath><clipPath id="5a89e7600f"><path d="M 136 132 L 151 132 L 151 147 L 136 147 Z M 136 132 " clip-rule="nonzero"/></clipPath><clipPath id="7787750797"><path d="M 16.527344 61.171875 L 241.042969 6.824219 L 315.332031 313.710938 L 90.816406 368.058594 Z M 16.527344 61.171875 " clip-rule="nonzero"/></clipPath><clipPath id="35d5b6bb22"><path d="M 16.527344 61.171875 L 241.042969 6.824219 L 315.332031 313.710938 L 90.816406 368.058594 Z M 16.527344 61.171875 " clip-rule="nonzero"/></clipPath><clipPath id="8d2a5ca92b"><path d="M 149 137 L 176 137 L 176 164 L 149 164 Z M 149 137 " clip-rule="nonzero"/></clipPath><clipPath id="26e3829557"><path d="M 16.527344 61.171875 L 241.042969 6.824219 L 315.332031 313.710938 L 90.816406 368.058594 Z M 16.527344 61.171875 " clip-rule="nonzero"/></clipPath><clipPath id="b5a954a119"><path d="M 16.527344 61.171875 L 241.042969 6.824219 L 315.332031 313.710938 L 90.816406 368.058594 Z M 16.527344 61.171875 " clip-rule="nonzero"/></clipPath><clipPath id="ee47f95ffb"><path d="M 107 99 L 131 99 L 131 122 L 107 122 Z M 107 99 " clip-rule="nonzero"/></clipPath><clipPath id="179078506b"><path d="M 16.527344 61.171875 L 241.042969 6.824219 L 315.332031 313.710938 L 90.816406 368.058594 Z M 16.527344 61.171875 " clip-rule="nonzero"/></clipPath><clipPath id="f6f5761d3f"><path d="M 16.527344 61.171875 L 241.042969 6.824219 L 315.332031 313.710938 L 90.816406 368.058594 Z M 16.527344 61.171875 " clip-rule="nonzero"/></clipPath><clipPath id="55012f8073"><path d="M 133 103 L 157 103 L 157 127 L 133 127 Z M 133 103 " clip-rule="nonzero"/></clipPath><clipPath id="813dddf085"><path d="M 16.527344 61.171875 L 241.042969 6.824219 L 315.332031 313.710938 L 90.816406 368.058594 Z M 16.527344 61.171875 " clip-rule="nonzero"/></clipPath><clipPath id="50b27f4110"><path d="M 16.527344 61.171875 L 241.042969 6.824219 L 315.332031 313.710938 L 90.816406 368.058594 Z M 16.527344 61.171875 " clip-rule="nonzero"/></clipPath><clipPath id="9a7aa0171d"><path d="M 150 128 L 159 128 L 159 138 L 150 138 Z M 150 128 " clip-rule="nonzero"/></clipPath><clipPath id="ea876cfca3"><path d="M 16.527344 61.171875 L 241.042969 6.824219 L 315.332031 313.710938 L 90.816406 368.058594 Z M 16.527344 61.171875 " clip-rule="nonzero"/></clipPath><clipPath id="0fcb36650c"><path d="M 16.527344 61.171875 L 241.042969 6.824219 L 315.332031 313.710938 L 90.816406 368.058594 Z M 16.527344 61.171875 " clip-rule="nonzero"/></clipPath><clipPath id="e262ee7fc5"><path d="M 159 111 L 190 111 L 190 142 L 159 142 Z M 159 111 " clip-rule="nonzero"/></clipPath><clipPath id="d1796233b9"><path d="M 16.527344 61.171875 L 241.042969 6.824219 L 315.332031 313.710938 L 90.816406 368.058594 Z M 16.527344 61.171875 " clip-rule="nonzero"/></clipPath><clipPath id="896b1455f7"><path d="M 16.527344 61.171875 L 241.042969 6.824219 L 315.332031 313.710938 L 90.816406 368.058594 Z M 16.527344 61.171875 " clip-rule="nonzero"/></clipPath><clipPath id="0be8c5b1f0"><path d="M 114 76 L 141 76 L 141 102 L 114 102 Z M 114 76 " clip-rule="nonzero"/></clipPath><clipPath id="f5c1668786"><path d="M 16.527344 61.171875 L 241.042969 6.824219 L 315.332031 313.710938 L 90.816406 368.058594 Z M 16.527344 61.171875 " clip-rule="nonzero"/></clipPath><clipPath id="9de74821af"><path d="M 16.527344 61.171875 L 241.042969 6.824219 L 315.332031 313.710938 L 90.816406 368.058594 Z M 16.527344 61.171875 " clip-rule="nonzero"/></clipPath><clipPath id="1f293787ab"><path d="M 142 88 L 159 88 L 159 105 L 142 105 Z M 142 88 " clip-rule="nonzero"/></clipPath><clipPath id="24375e636b"><path d="M 16.527344 61.171875 L 241.042969 6.824219 L 315.332031 313.710938 L 90.816406 368.058594 Z M 16.527344 61.171875 " clip-rule="nonzero"/></clipPath><clipPath id="c003a0a624"><path d="M 16.527344 61.171875 L 241.042969 6.824219 L 315.332031 313.710938 L 90.816406 368.058594 Z M 16.527344 61.171875 " clip-rule="nonzero"/></clipPath><clipPath id="0d4351290c"><path d="M 156 103 L 167 103 L 167 114 L 156 114 Z M 156 103 " clip-rule="nonzero"/></clipPath><clipPath id="f093089efc"><path d="M 16.527344 61.171875 L 241.042969 6.824219 L 315.332031 313.710938 L 90.816406 368.058594 Z M 16.527344 61.171875 " clip-rule="nonzero"/></clipPath><clipPath id="b90bb42d54"><path d="M 16.527344 61.171875 L 241.042969 6.824219 L 315.332031 313.710938 L 90.816406 368.058594 Z M 16.527344 61.171875 " clip-rule="nonzero"/></clipPath><clipPath id="cbb096fb61"><path d="M 210 90 L 227 90 L 227 106 L 210 106 Z M 210 90 " clip-rule="nonzero"/></clipPath><clipPath id="13cbf6ca05"><path d="M 16.527344 61.171875 L 241.042969 6.824219 L 315.332031 313.710938 L 90.816406 368.058594 Z M 16.527344 61.171875 " clip-rule="nonzero"/></clipPath><clipPath id="b67983758d"><path d="M 16.527344 61.171875 L 241.042969 6.824219 L 315.332031 313.710938 L 90.816406 368.058594 Z M 16.527344 61.171875 " clip-rule="nonzero"/></clipPath><clipPath id="f747d2eb2e"><path d="M 187 73 L 211 73 L 211 97 L 187 97 Z M 187 73 " clip-rule="nonzero"/></clipPath><clipPath id="3b78afb1cb"><path d="M 16.527344 61.171875 L 241.042969 6.824219 L 315.332031 313.710938 L 90.816406 368.058594 Z M 16.527344 61.171875 " clip-rule="nonzero"/></clipPath><clipPath id="1e7ec1e42f"><path d="M 16.527344 61.171875 L 241.042969 6.824219 L 315.332031 313.710938 L 90.816406 368.058594 Z M 16.527344 61.171875 " clip-rule="nonzero"/></clipPath><clipPath id="2726b89538"><path d="M 171 97 L 183 97 L 183 109 L 171 109 Z M 171 97 " clip-rule="nonzero"/></clipPath><clipPath id="ee36da1d92"><path d="M 16.527344 61.171875 L 241.042969 6.824219 L 315.332031 313.710938 L 90.816406 368.058594 Z M 16.527344 61.171875 " clip-rule="nonzero"/></clipPath><clipPath id="74a60f3b5a"><path d="M 16.527344 61.171875 L 241.042969 6.824219 L 315.332031 313.710938 L 90.816406 368.058594 Z M 16.527344 61.171875 " clip-rule="nonzero"/></clipPath><clipPath id="6637350173"><path d="M 181 105 L 196 105 L 196 119 L 181 119 Z M 181 105 " clip-rule="nonzero"/></clipPath><clipPath id="7732065e2f"><path d="M 16.527344 61.171875 L 241.042969 6.824219 L 315.332031 313.710938 L 90.816406 368.058594 Z M 16.527344 61.171875 " clip-rule="nonzero"/></clipPath><clipPath id="3cea187954"><path d="M 16.527344 61.171875 L 241.042969 6.824219 L 315.332031 313.710938 L 90.816406 368.058594 Z M 16.527344 61.171875 " clip-rule="nonzero"/></clipPath><clipPath id="3770035f2d"><path d="M 179 90 L 189 90 L 189 99 L 179 99 Z M 179 90 " clip-rule="nonzero"/></clipPath><clipPath id="ae81904409"><path d="M 16.527344 61.171875 L 241.042969 6.824219 L 315.332031 313.710938 L 90.816406 368.058594 Z M 16.527344 61.171875 " clip-rule="nonzero"/></clipPath><clipPath id="b68fdd4cf6"><path d="M 16.527344 61.171875 L 241.042969 6.824219 L 315.332031 313.710938 L 90.816406 368.058594 Z M 16.527344 61.171875 " clip-rule="nonzero"/></clipPath><clipPath id="fddd9449ad"><path d="M 178 143 L 188 143 L 188 152 L 178 152 Z M 178 143 " clip-rule="nonzero"/></clipPath><clipPath id="cc21940597"><path d="M 16.527344 61.171875 L 241.042969 6.824219 L 315.332031 313.710938 L 90.816406 368.058594 Z M 16.527344 61.171875 " clip-rule="nonzero"/></clipPath><clipPath id="c55218474a"><path d="M 16.527344 61.171875 L 241.042969 6.824219 L 315.332031 313.710938 L 90.816406 368.058594 Z M 16.527344 61.171875 " clip-rule="nonzero"/></clipPath><clipPath id="8e323e4c30"><path d="M 190 96 L 198 96 L 198 103 L 190 103 Z M 190 96 " clip-rule="nonzero"/></clipPath><clipPath id="b49bb2371f"><path d="M 16.527344 61.171875 L 241.042969 6.824219 L 315.332031 313.710938 L 90.816406 368.058594 Z M 16.527344 61.171875 " clip-rule="nonzero"/></clipPath><clipPath id="427540832b"><path d="M 16.527344 61.171875 L 241.042969 6.824219 L 315.332031 313.710938 L 90.816406 368.058594 Z M 16.527344 61.171875 " clip-rule="nonzero"/></clipPath><clipPath id="452d80f0b3"><path d="M 106 93 L 113 93 L 113 100 L 106 100 Z M 106 93 " clip-rule="nonzero"/></clipPath><clipPath id="072fac14a6"><path d="M 16.527344 61.171875 L 241.042969 6.824219 L 315.332031 313.710938 L 90.816406 368.058594 Z M 16.527344 61.171875 " clip-rule="nonzero"/></clipPath><clipPath id="775fdbed95"><path d="M 16.527344 61.171875 L 241.042969 6.824219 L 315.332031 313.710938 L 90.816406 368.058594 Z M 16.527344 61.171875 " clip-rule="nonzero"/></clipPath><clipPath id="0293a018a5"><path d="M 100 100 L 106 100 L 106 107 L 100 107 Z M 100 100 " clip-rule="nonzero"/></clipPath><clipPath id="5c723652de"><path d="M 16.527344 61.171875 L 241.042969 6.824219 L 315.332031 313.710938 L 90.816406 368.058594 Z M 16.527344 61.171875 " clip-rule="nonzero"/></clipPath><clipPath id="a4ec3bfd5b"><path d="M 16.527344 61.171875 L 241.042969 6.824219 L 315.332031 313.710938 L 90.816406 368.058594 Z M 16.527344 61.171875 " clip-rule="nonzero"/></clipPath><clipPath id="dac4eb7134"><path d="M 99 155 L 123 155 L 123 179 L 99 179 Z M 99 155 " clip-rule="nonzero"/></clipPath><clipPath id="10f740d381"><path d="M 16.527344 61.171875 L 241.042969 6.824219 L 315.332031 313.710938 L 90.816406 368.058594 Z M 16.527344 61.171875 " clip-rule="nonzero"/></clipPath><clipPath id="de1940dd90"><path d="M 16.527344 61.171875 L 241.042969 6.824219 L 315.332031 313.710938 L 90.816406 368.058594 Z M 16.527344 61.171875 " clip-rule="nonzero"/></clipPath><clipPath id="9ee7cce4d4"><path d="M 115 139 L 135 139 L 135 158 L 115 158 Z M 115 139 " clip-rule="nonzero"/></clipPath><clipPath id="a96b382dfb"><path d="M 16.527344 61.171875 L 241.042969 6.824219 L 315.332031 313.710938 L 90.816406 368.058594 Z M 16.527344 61.171875 " clip-rule="nonzero"/></clipPath><clipPath id="492bd8edd0"><path d="M 16.527344 61.171875 L 241.042969 6.824219 L 315.332031 313.710938 L 90.816406 368.058594 Z M 16.527344 61.171875 " clip-rule="nonzero"/></clipPath><clipPath id="898575f055"><path d="M 97 147 L 106 147 L 106 156 L 97 156 Z M 97 147 " clip-rule="nonzero"/></clipPath><clipPath id="5c3689b261"><path d="M 16.527344 61.171875 L 241.042969 6.824219 L 315.332031 313.710938 L 90.816406 368.058594 Z M 16.527344 61.171875 " clip-rule="nonzero"/></clipPath><clipPath id="a6cf1fb89c"><path d="M 16.527344 61.171875 L 241.042969 6.824219 L 315.332031 313.710938 L 90.816406 368.058594 Z M 16.527344 61.171875 " clip-rule="nonzero"/></clipPath><clipPath id="3e9f97314a"><path d="M 91 157 L 98 157 L 98 164 L 91 164 Z M 91 157 " clip-rule="nonzero"/></clipPath><clipPath id="9ea6e9c8ce"><path d="M 16.527344 61.171875 L 241.042969 6.824219 L 315.332031 313.710938 L 90.816406 368.058594 Z M 16.527344 61.171875 " clip-rule="nonzero"/></clipPath><clipPath id="a5e5c14270"><path d="M 16.527344 61.171875 L 241.042969 6.824219 L 315.332031 313.710938 L 90.816406 368.058594 Z M 16.527344 61.171875 " clip-rule="nonzero"/></clipPath><clipPath id="9a9169deee"><path d="M 162 64 L 186 64 L 186 87 L 162 87 Z M 162 64 " clip-rule="nonzero"/></clipPath><clipPath id="3f7fff626f"><path d="M 16.527344 61.171875 L 241.042969 6.824219 L 315.332031 313.710938 L 90.816406 368.058594 Z M 16.527344 61.171875 " clip-rule="nonzero"/></clipPath><clipPath id="e37e342d02"><path d="M 16.527344 61.171875 L 241.042969 6.824219 L 315.332031 313.710938 L 90.816406 368.058594 Z M 16.527344 61.171875 " clip-rule="nonzero"/></clipPath><clipPath id="87bc921fec"><path d="M 146 73 L 161 73 L 161 88 L 146 88 Z M 146 73 " clip-rule="nonzero"/></clipPath><clipPath id="423a91971a"><path d="M 16.527344 61.171875 L 241.042969 6.824219 L 315.332031 313.710938 L 90.816406 368.058594 Z M 16.527344 61.171875 " clip-rule="nonzero"/></clipPath><clipPath id="6d5edcfc3e"><path d="M 16.527344 61.171875 L 241.042969 6.824219 L 315.332031 313.710938 L 90.816406 368.058594 Z M 16.527344 61.171875 " clip-rule="nonzero"/></clipPath><clipPath id="f26975ba03"><path d="M 161 89 L 169 89 L 169 96 L 161 96 Z M 161 89 " clip-rule="nonzero"/></clipPath><clipPath id="a33e470c4e"><path d="M 16.527344 61.171875 L 241.042969 6.824219 L 315.332031 313.710938 L 90.816406 368.058594 Z M 16.527344 61.171875 " clip-rule="nonzero"/></clipPath><clipPath id="882adccfb4"><path d="M 16.527344 61.171875 L 241.042969 6.824219 L 315.332031 313.710938 L 90.816406 368.058594 Z M 16.527344 61.171875 " clip-rule="nonzero"/></clipPath><clipPath id="51f5715ef6"><path d="M 130 152 L 154 152 L 154 176 L 130 176 Z M 130 152 " clip-rule="nonzero"/></clipPath><clipPath id="ff9e47fefc"><path d="M 16.527344 61.171875 L 241.042969 6.824219 L 315.332031 313.710938 L 90.816406 368.058594 Z M 16.527344 61.171875 " clip-rule="nonzero"/></clipPath><clipPath id="ee2df6f0b0"><path d="M 16.527344 61.171875 L 241.042969 6.824219 L 315.332031 313.710938 L 90.816406 368.058594 Z M 16.527344 61.171875 " clip-rule="nonzero"/></clipPath><clipPath id="dc9b25543c"><path d="M 125 170 L 135 170 L 135 180 L 125 180 Z M 125 170 " clip-rule="nonzero"/></clipPath><clipPath id="7056805e5c"><path d="M 16.527344 61.171875 L 241.042969 6.824219 L 315.332031 313.710938 L 90.816406 368.058594 Z M 16.527344 61.171875 " clip-rule="nonzero"/></clipPath><clipPath id="3d78ef0c22"><path d="M 16.527344 61.171875 L 241.042969 6.824219 L 315.332031 313.710938 L 90.816406 368.058594 Z M 16.527344 61.171875 " clip-rule="nonzero"/></clipPath><clipPath id="117c99d58d"><path d="M 156 166 L 164 166 L 164 174 L 156 174 Z M 156 166 " clip-rule="nonzero"/></clipPath><clipPath id="16393825f1"><path d="M 16.527344 61.171875 L 241.042969 6.824219 L 315.332031 313.710938 L 90.816406 368.058594 Z M 16.527344 61.171875 " clip-rule="nonzero"/></clipPath><clipPath id="5f6b73248e"><path d="M 16.527344 61.171875 L 241.042969 6.824219 L 315.332031 313.710938 L 90.816406 368.058594 Z M 16.527344 61.171875 " clip-rule="nonzero"/></clipPath><clipPath id="077b38f05f"><path d="M 90 177 L 118 177 L 118 204 L 90 204 Z M 90 177 " clip-rule="nonzero"/></clipPath><clipPath id="1f3717e522"><path d="M 16.527344 61.171875 L 241.042969 6.824219 L 315.332031 313.710938 L 90.816406 368.058594 Z M 16.527344 61.171875 " clip-rule="nonzero"/></clipPath><clipPath id="36f360466b"><path d="M 16.527344 61.171875 L 241.042969 6.824219 L 315.332031 313.710938 L 90.816406 368.058594 Z M 16.527344 61.171875 " clip-rule="nonzero"/></clipPath><clipPath id="25fa37c555"><path d="M 117 178 L 132 178 L 132 193 L 117 193 Z M 117 178 " clip-rule="nonzero"/></clipPath><clipPath id="5e2e9c5d7e"><path d="M 16.527344 61.171875 L 241.042969 6.824219 L 315.332031 313.710938 L 90.816406 368.058594 Z M 16.527344 61.171875 " clip-rule="nonzero"/></clipPath><clipPath id="47acfcd494"><path d="M 16.527344 61.171875 L 241.042969 6.824219 L 315.332031 313.710938 L 90.816406 368.058594 Z M 16.527344 61.171875 " clip-rule="nonzero"/></clipPath><clipPath id="6061c4001b"><path d="M 85 137 L 95 137 L 95 147 L 85 147 Z M 85 137 " clip-rule="nonzero"/></clipPath><clipPath id="453dda9041"><path d="M 16.527344 61.171875 L 241.042969 6.824219 L 315.332031 313.710938 L 90.816406 368.058594 Z M 16.527344 61.171875 " clip-rule="nonzero"/></clipPath><clipPath id="7025f9b269"><path d="M 16.527344 61.171875 L 241.042969 6.824219 L 315.332031 313.710938 L 90.816406 368.058594 Z M 16.527344 61.171875 " clip-rule="nonzero"/></clipPath><clipPath id="d8ebf5225f"><path d="M 86 167 L 100 167 L 100 180 L 86 180 Z M 86 167 " clip-rule="nonzero"/></clipPath><clipPath id="c9081f20d3"><path d="M 16.527344 61.171875 L 241.042969 6.824219 L 315.332031 313.710938 L 90.816406 368.058594 Z M 16.527344 61.171875 " clip-rule="nonzero"/></clipPath><clipPath id="4403b8294c"><path d="M 16.527344 61.171875 L 241.042969 6.824219 L 315.332031 313.710938 L 90.816406 368.058594 Z M 16.527344 61.171875 " clip-rule="nonzero"/></clipPath><clipPath id="41b9353b9a"><path d="M 87 123 L 97 123 L 97 132 L 87 132 Z M 87 123 " clip-rule="nonzero"/></clipPath><clipPath id="4185b21887"><path d="M 16.527344 61.171875 L 241.042969 6.824219 L 315.332031 313.710938 L 90.816406 368.058594 Z M 16.527344 61.171875 " clip-rule="nonzero"/></clipPath><clipPath id="037e4d02eb"><path d="M 16.527344 61.171875 L 241.042969 6.824219 L 315.332031 313.710938 L 90.816406 368.058594 Z M 16.527344 61.171875 " clip-rule="nonzero"/></clipPath><clipPath id="ca1c17272f"><path d="M 136 70 L 145 70 L 145 80 L 136 80 Z M 136 70 " clip-rule="nonzero"/></clipPath><clipPath id="9977fcc936"><path d="M 16.527344 61.171875 L 241.042969 6.824219 L 315.332031 313.710938 L 90.816406 368.058594 Z M 16.527344 61.171875 " clip-rule="nonzero"/></clipPath><clipPath id="f829f70618"><path d="M 16.527344 61.171875 L 241.042969 6.824219 L 315.332031 313.710938 L 90.816406 368.058594 Z M 16.527344 61.171875 " clip-rule="nonzero"/></clipPath><clipPath id="70647444ca"><path d="M 199 100 L 208 100 L 208 110 L 199 110 Z M 199 100 " clip-rule="nonzero"/></clipPath><clipPath id="f08339f1d4"><path d="M 16.527344 61.171875 L 241.042969 6.824219 L 315.332031 313.710938 L 90.816406 368.058594 Z M 16.527344 61.171875 " clip-rule="nonzero"/></clipPath><clipPath id="fe6defdd51"><path d="M 16.527344 61.171875 L 241.042969 6.824219 L 315.332031 313.710938 L 90.816406 368.058594 Z M 16.527344 61.171875 " clip-rule="nonzero"/></clipPath><clipPath id="48ebff54b3"><path d="M 186 127 L 209 127 L 209 150 L 186 150 Z M 186 127 " clip-rule="nonzero"/></clipPath><clipPath id="03e0dc95c5"><path d="M 16.527344 61.171875 L 241.042969 6.824219 L 315.332031 313.710938 L 90.816406 368.058594 Z M 16.527344 61.171875 " clip-rule="nonzero"/></clipPath><clipPath id="c4e49f6241"><path d="M 16.527344 61.171875 L 241.042969 6.824219 L 315.332031 313.710938 L 90.816406 368.058594 Z M 16.527344 61.171875 " clip-rule="nonzero"/></clipPath><clipPath id="88fd8b6525"><path d="M 176 155 L 183 155 L 183 162 L 176 162 Z M 176 155 " clip-rule="nonzero"/></clipPath><clipPath id="d03676a9a3"><path d="M 16.527344 61.171875 L 241.042969 6.824219 L 315.332031 313.710938 L 90.816406 368.058594 Z M 16.527344 61.171875 " clip-rule="nonzero"/></clipPath><clipPath id="bd3158f679"><path d="M 16.527344 61.171875 L 241.042969 6.824219 L 315.332031 313.710938 L 90.816406 368.058594 Z M 16.527344 61.171875 " clip-rule="nonzero"/></clipPath><clipPath id="d200f81ed7"><path d="M 135 178 L 143 178 L 143 185 L 135 185 Z M 135 178 " clip-rule="nonzero"/></clipPath><clipPath id="9426787c15"><path d="M 16.527344 61.171875 L 241.042969 6.824219 L 315.332031 313.710938 L 90.816406 368.058594 Z M 16.527344 61.171875 " clip-rule="nonzero"/></clipPath><clipPath id="945723c4f9"><path d="M 16.527344 61.171875 L 241.042969 6.824219 L 315.332031 313.710938 L 90.816406 368.058594 Z M 16.527344 61.171875 " clip-rule="nonzero"/></clipPath><clipPath id="079f89c962"><path d="M 224 106 L 232 106 L 232 113 L 224 113 Z M 224 106 " clip-rule="nonzero"/></clipPath><clipPath id="0f4124bfa7"><path d="M 16.527344 61.171875 L 241.042969 6.824219 L 315.332031 313.710938 L 90.816406 368.058594 Z M 16.527344 61.171875 " clip-rule="nonzero"/></clipPath><clipPath id="853e030b29"><path d="M 16.527344 61.171875 L 241.042969 6.824219 L 315.332031 313.710938 L 90.816406 368.058594 Z M 16.527344 61.171875 " clip-rule="nonzero"/></clipPath><clipPath id="6d133cb5b1"><path d="M 47 30 L 264 30 L 264 298 L 47 298 Z M 47 30 " clip-rule="nonzero"/></clipPath><clipPath id="01e69dc604"><path d="M 16.527344 61.171875 L 241.042969 6.824219 L 315.332031 313.710938 L 90.816406 368.058594 Z M 16.527344 61.171875 " clip-rule="nonzero"/></clipPath><clipPath id="a45871c518"><path d="M 16.527344 61.171875 L 241.042969 6.824219 L 315.332031 313.710938 L 90.816406 368.058594 Z M 16.527344 61.171875 " clip-rule="nonzero"/></clipPath><clipPath id="0411c63c53"><path d="M 153 287 L 240 287 L 240 320 L 153 320 Z M 153 287 " clip-rule="nonzero"/></clipPath><clipPath id="759202cc79"><path d="M 16.527344 61.171875 L 241.042969 6.824219 L 315.332031 313.710938 L 90.816406 368.058594 Z M 16.527344 61.171875 " clip-rule="nonzero"/></clipPath><clipPath id="896f0adf9a"><path d="M 16.527344 61.171875 L 241.042969 6.824219 L 315.332031 313.710938 L 90.816406 368.058594 Z M 16.527344 61.171875 " clip-rule="nonzero"/></clipPath><clipPath id="af1a05dbe8"><path d="M 169 310 L 234 310 L 234 344 L 169 344 Z M 169 310 " clip-rule="nonzero"/></clipPath><clipPath id="f7022e81b0"><path d="M 16.527344 61.171875 L 241.042969 6.824219 L 315.332031 313.710938 L 90.816406 368.058594 Z M 16.527344 61.171875 " clip-rule="nonzero"/></clipPath><clipPath id="7aac5d83f5"><path d="M 16.527344 61.171875 L 241.042969 6.824219 L 315.332031 313.710938 L 90.816406 368.058594 Z M 16.527344 61.171875 " clip-rule="nonzero"/></clipPath></defs><g clip-path="url(#d4b7bdecf8)"><g clip-path="url(#760961e579)"><g clip-path="url(#854f8eda16)"><path fill="#f37033" d="M 213.617188 107.234375 C 211.847656 105.65625 209.304688 105.609375 207.90625 107.164062 L 198.316406 117.851562 C 196.925781 119.394531 197.230469 121.941406 198.988281 123.527344 L 211.1875 134.488281 C 212.945312 136.074219 215.507812 136.101562 216.898438 134.558594 L 226.488281 123.871094 C 227.890625 122.328125 227.578125 119.796875 225.808594 118.214844 Z M 213.617188 107.234375 " fill-opacity="1" fill-rule="nonzero"/></g></g></g><g clip-path="url(#4cc4ff232a)"><g clip-path="url(#e85bd3aca4)"><g clip-path="url(#510a618305)"><path fill="#f37033" d="M 96.726562 120.203125 C 97.46875 120.863281 98.535156 120.867188 99.117188 120.21875 L 103.152344 115.726562 C 103.734375 115.082031 103.609375 114.023438 102.863281 113.359375 L 97.777344 108.792969 C 97.046875 108.140625 95.96875 108.128906 95.398438 108.773438 L 91.363281 113.265625 C 90.78125 113.910156 90.894531 114.972656 91.640625 115.636719 Z M 96.726562 120.203125 " fill-opacity="1" fill-rule="nonzero"/></g></g></g><g clip-path="url(#75f3b467a0)"><g clip-path="url(#dbe623c578)"><g clip-path="url(#aa51113553)"><path fill="#f37033" d="M 88.164062 158.5625 C 88.679688 159.019531 89.417969 159.023438 89.828125 158.574219 L 92.605469 155.476562 C 93.015625 155.027344 92.929688 154.296875 92.417969 153.835938 L 88.890625 150.683594 C 88.378906 150.222656 87.652344 150.21875 87.242188 150.667969 L 84.449219 153.769531 C 84.054688 154.214844 84.140625 154.945312 84.640625 155.40625 Z M 88.164062 158.5625 " fill-opacity="1" fill-rule="nonzero"/></g></g></g><g clip-path="url(#f8f106b6b4)"><g clip-path="url(#ae74eff66a)"><g clip-path="url(#407be227eb)"><path fill="#f37033" d="M 110.777344 145.410156 L 118.175781 137.175781 C 119.234375 135.984375 119.007812 134.027344 117.648438 132.8125 L 108.238281 124.367188 C 106.894531 123.148438 104.929688 123.117188 103.851562 124.300781 L 96.445312 132.539062 C 95.371094 133.734375 95.609375 135.683594 96.96875 136.898438 L 106.378906 145.347656 C 107.742188 146.585938 109.71875 146.601562 110.777344 145.410156 Z M 110.777344 145.410156 " fill-opacity="1" fill-rule="nonzero"/></g></g></g><g clip-path="url(#f1dde184db)"><g clip-path="url(#e51807d74d)"><g clip-path="url(#01c3b4209a)"><path fill="#f37033" d="M 135.074219 129.515625 C 135.664062 128.855469 135.542969 127.757812 134.78125 127.070312 L 129.503906 122.316406 C 128.742188 121.632812 127.628906 121.632812 127.035156 122.292969 L 122.875 126.917969 C 122.273438 127.597656 122.410156 128.691406 123.171875 129.375 L 128.449219 134.128906 C 129.210938 134.8125 130.3125 134.820312 130.917969 134.15625 Z M 135.074219 129.515625 " fill-opacity="1" fill-rule="nonzero"/></g></g></g><g clip-path="url(#5a89e7600f)"><g clip-path="url(#7787750797)"><g clip-path="url(#35d5b6bb22)"><path fill="#f37033" d="M 142.898438 145.933594 C 143.730469 146.679688 144.9375 146.6875 145.582031 145.972656 L 150.085938 140.953125 C 150.730469 140.238281 150.59375 139.039062 149.765625 138.292969 L 144.046875 133.15625 C 143.21875 132.410156 142.023438 132.398438 141.371094 133.128906 L 136.863281 138.136719 C 136.207031 138.867188 136.351562 140.050781 137.183594 140.796875 Z M 142.898438 145.933594 " fill-opacity="1" fill-rule="nonzero"/></g></g></g><g clip-path="url(#8d2a5ca92b)"><g clip-path="url(#26e3829557)"><g clip-path="url(#b5a954a119)"><path fill="#f37033" d="M 174.066406 148.246094 L 163.507812 138.753906 C 161.984375 137.386719 159.761719 137.367188 158.566406 138.691406 L 150.238281 147.957031 C 149.03125 149.300781 149.289062 151.496094 150.816406 152.863281 L 161.386719 162.351562 C 162.910156 163.722656 165.125 163.757812 166.332031 162.414062 L 174.644531 153.152344 C 175.851562 151.820312 175.59375 149.628906 174.066406 148.246094 Z M 174.066406 148.246094 " fill-opacity="1" fill-rule="nonzero"/></g></g></g><g clip-path="url(#ee47f95ffb)"><g clip-path="url(#179078506b)"><g clip-path="url(#f6f5761d3f)"><path fill="#f37033" d="M 108.371094 112.585938 L 117.777344 121.019531 C 119.140625 122.246094 121.101562 122.265625 122.175781 121.070312 L 129.558594 112.839844 C 130.632812 111.644531 130.402344 109.6875 129.042969 108.460938 L 119.648438 100.023438 C 118.289062 98.808594 116.3125 98.78125 115.25 99.972656 L 107.855469 108.210938 C 106.785156 109.414062 107.023438 111.367188 108.371094 112.585938 Z M 108.371094 112.585938 " fill-opacity="1" fill-rule="nonzero"/></g></g></g><g clip-path="url(#55012f8073)"><g clip-path="url(#813dddf085)"><g clip-path="url(#50b27f4110)"><path fill="#f37033" d="M 155.289062 112.679688 L 145.878906 104.230469 C 144.519531 103.015625 142.542969 102.988281 141.480469 104.179688 L 134.085938 112.417969 C 133.011719 113.609375 133.253906 115.5625 134.613281 116.789062 L 144.011719 125.238281 C 145.371094 126.453125 147.347656 126.480469 148.40625 125.289062 L 155.804688 117.054688 C 156.886719 115.847656 156.648438 113.894531 155.289062 112.679688 Z M 155.289062 112.679688 " fill-opacity="1" fill-rule="nonzero"/></g></g></g><g clip-path="url(#9a7aa0171d)"><g clip-path="url(#ea876cfca3)"><g clip-path="url(#0fcb36650c)"><path fill="#f37033" d="M 153.09375 128.839844 L 150.300781 131.9375 C 149.90625 132.386719 149.980469 133.121094 150.492188 133.578125 L 154.003906 136.734375 C 154.519531 137.195312 155.257812 137.199219 155.667969 136.75 L 158.445312 133.652344 C 158.855469 133.203125 158.765625 132.457031 158.253906 132 L 154.726562 128.84375 C 154.226562 128.382812 153.492188 128.390625 153.09375 128.839844 Z M 153.09375 128.839844 " fill-opacity="1" fill-rule="nonzero"/></g></g></g><g clip-path="url(#e262ee7fc5)"><g clip-path="url(#d1796233b9)"><g clip-path="url(#896b1455f7)"><path fill="#f37033" d="M 173.179688 140.082031 C 174.949219 141.664062 177.503906 141.707031 178.882812 140.167969 L 188.484375 129.480469 C 189.875 127.9375 189.574219 125.402344 187.800781 123.820312 L 175.605469 112.871094 C 173.847656 111.285156 171.296875 111.253906 169.910156 112.796875 L 160.304688 123.488281 C 158.925781 125.027344 159.214844 127.5625 160.976562 129.148438 Z M 173.179688 140.082031 " fill-opacity="1" fill-rule="nonzero"/></g></g></g><g clip-path="url(#0be8c5b1f0)"><g clip-path="url(#f5c1668786)"><g clip-path="url(#9de74821af)"><path fill="#f37033" d="M 126.652344 100.78125 C 128.175781 102.148438 130.390625 102.183594 131.59375 100.839844 L 139.910156 91.578125 C 141.101562 90.238281 140.84375 88.046875 139.320312 86.675781 L 128.746094 77.175781 C 127.21875 75.792969 125.007812 75.769531 123.800781 77.113281 L 115.484375 86.363281 C 114.277344 87.707031 114.539062 89.914062 116.078125 91.277344 Z M 126.652344 100.78125 " fill-opacity="1" fill-rule="nonzero"/></g></g></g><g clip-path="url(#1f293787ab)"><g clip-path="url(#24375e636b)"><g clip-path="url(#c003a0a624)"><path fill="#f37033" d="M 157.589844 95.289062 L 151.140625 89.484375 C 150.199219 88.648438 148.851562 88.609375 148.121094 89.4375 L 143.042969 95.101562 C 142.308594 95.914062 142.476562 97.261719 143.40625 98.097656 L 149.871094 103.902344 C 150.816406 104.75 152.152344 104.761719 152.886719 103.933594 L 157.976562 98.28125 C 158.691406 97.472656 158.523438 96.140625 157.589844 95.289062 Z M 157.589844 95.289062 " fill-opacity="1" fill-rule="nonzero"/></g></g></g><g clip-path="url(#0d4351290c)"><g clip-path="url(#f093089efc)"><g clip-path="url(#b90bb42d54)"><path fill="#f37033" d="M 156.878906 109.390625 L 160.988281 113.078125 C 161.570312 113.609375 162.429688 113.621094 162.902344 113.105469 L 166.128906 109.511719 C 166.597656 108.980469 166.496094 108.136719 165.914062 107.605469 L 161.804688 103.917969 C 161.222656 103.382812 160.351562 103.375 159.882812 103.902344 L 156.65625 107.496094 C 156.183594 108.015625 156.285156 108.859375 156.878906 109.390625 Z M 156.878906 109.390625 " fill-opacity="1" fill-rule="nonzero"/></g></g></g><g clip-path="url(#cbb096fb61)"><g clip-path="url(#13cbf6ca05)"><g clip-path="url(#b67983758d)"><path fill="#f37033" d="M 211.796875 99.285156 L 218.246094 105.089844 C 219.1875 105.925781 220.53125 105.953125 221.265625 105.125 L 226.351562 99.457031 C 227.085938 98.644531 226.921875 97.3125 225.988281 96.460938 L 219.539062 90.65625 C 218.597656 89.820312 217.253906 89.792969 216.515625 90.609375 L 211.429688 96.273438 C 210.695312 97.101562 210.867188 98.445312 211.796875 99.285156 Z M 211.796875 99.285156 " fill-opacity="1" fill-rule="nonzero"/></g></g></g><g clip-path="url(#f747d2eb2e)"><g clip-path="url(#3b78afb1cb)"><g clip-path="url(#1e7ec1e42f)"><path fill="#f37033" d="M 197.929688 95.574219 C 199.289062 96.800781 201.265625 96.816406 202.3125 95.628906 L 209.707031 87.390625 C 210.78125 86.199219 210.554688 84.242188 209.195312 83.015625 L 199.796875 74.578125 C 198.441406 73.363281 196.460938 73.335938 195.390625 74.53125 L 187.992188 82.765625 C 186.933594 83.957031 187.160156 85.914062 188.515625 87.128906 Z M 197.929688 95.574219 " fill-opacity="1" fill-rule="nonzero"/></g></g></g><g clip-path="url(#2726b89538)"><g clip-path="url(#ee36da1d92)"><g clip-path="url(#74a60f3b5a)"><path fill="#f37033" d="M 174.976562 97.628906 L 171.402344 101.605469 C 170.878906 102.175781 171.003906 103.128906 171.652344 103.710938 L 176.175781 107.777344 C 176.839844 108.382812 177.789062 108.386719 178.296875 107.808594 L 181.875 103.832031 C 182.382812 103.253906 182.261719 102.324219 181.613281 101.730469 L 177.082031 97.648438 C 176.4375 97.066406 175.488281 97.0625 174.976562 97.628906 Z M 174.976562 97.628906 " fill-opacity="1" fill-rule="nonzero"/></g></g></g><g clip-path="url(#6637350173)"><g clip-path="url(#7732065e2f)"><g clip-path="url(#3cea187954)"><path fill="#f37033" d="M 190.644531 118.464844 L 195.027344 113.589844 C 195.660156 112.890625 195.511719 111.734375 194.714844 111.019531 L 189.148438 106.027344 C 188.351562 105.296875 187.179688 105.285156 186.558594 105.980469 L 182.171875 110.851562 C 181.542969 111.5625 181.675781 112.710938 182.476562 113.4375 L 188.03125 118.4375 C 188.851562 119.15625 190.011719 119.175781 190.644531 118.464844 Z M 190.644531 118.464844 " fill-opacity="1" fill-rule="nonzero"/></g></g></g><g clip-path="url(#3770035f2d)"><g clip-path="url(#ae81904409)"><g clip-path="url(#b68fdd4cf6)"><path fill="#f37033" d="M 185.230469 98.570312 L 188.019531 95.46875 C 188.429688 95.019531 188.328125 94.28125 187.832031 93.828125 L 184.316406 90.671875 C 183.804688 90.214844 183.066406 90.210938 182.667969 90.65625 L 179.875 93.757812 C 179.480469 94.203125 179.554688 94.9375 180.066406 95.398438 L 183.578125 98.554688 C 184.078125 99.003906 184.820312 99.019531 185.230469 98.570312 Z M 185.230469 98.570312 " fill-opacity="1" fill-rule="nonzero"/></g></g></g><g clip-path="url(#fddd9449ad)"><g clip-path="url(#cc21940597)"><g clip-path="url(#c55218474a)"><path fill="#f37033" d="M 183.09375 143.6875 C 182.578125 143.230469 181.839844 143.226562 181.441406 143.671875 L 178.652344 146.773438 C 178.253906 147.21875 178.339844 147.953125 178.851562 148.410156 L 182.367188 151.566406 C 182.878906 152.027344 183.621094 152.03125 184.019531 151.597656 L 186.808594 148.484375 C 187.207031 148.035156 187.121094 147.304688 186.605469 146.847656 Z M 183.09375 143.6875 " fill-opacity="1" fill-rule="nonzero"/></g></g></g><g clip-path="url(#8e323e4c30)"><g clip-path="url(#b49bb2371f)"><g clip-path="url(#427540832b)"><path fill="#f37033" d="M 194.902344 102.3125 L 197.007812 99.960938 C 197.3125 99.625 197.253906 99.058594 196.863281 98.726562 L 194.207031 96.332031 C 193.824219 95.984375 193.257812 95.992188 192.960938 96.324219 L 190.855469 98.660156 C 190.550781 99.007812 190.617188 99.550781 191.011719 99.894531 L 193.664062 102.285156 C 194.050781 102.648438 194.609375 102.65625 194.902344 102.3125 Z M 194.902344 102.3125 " fill-opacity="1" fill-rule="nonzero"/></g></g></g><g clip-path="url(#452d80f0b3)"><g clip-path="url(#072fac14a6)"><g clip-path="url(#775fdbed95)"><path fill="#f37033" d="M 109.132812 99.121094 C 109.449219 99.417969 109.914062 99.410156 110.183594 99.125 L 111.941406 97.167969 C 112.195312 96.886719 112.148438 96.417969 111.820312 96.136719 L 109.597656 94.132812 C 109.269531 93.847656 108.8125 93.839844 108.558594 94.136719 L 106.789062 96.09375 C 106.535156 96.375 106.582031 96.84375 106.910156 97.128906 Z M 109.132812 99.121094 " fill-opacity="1" fill-rule="nonzero"/></g></g></g><g clip-path="url(#0293a018a5)"><g clip-path="url(#5c723652de)"><g clip-path="url(#a4ec3bfd5b)"><path fill="#f37033" d="M 103.03125 105.914062 C 103.347656 106.199219 103.820312 106.214844 104.074219 105.921875 L 105.84375 103.960938 C 106.097656 103.679688 106.035156 103.214844 105.722656 102.929688 L 103.5 100.925781 C 103.183594 100.636719 102.714844 100.632812 102.472656 100.914062 L 100.679688 102.890625 C 100.425781 103.171875 100.484375 103.636719 100.796875 103.914062 Z M 103.03125 105.914062 " fill-opacity="1" fill-rule="nonzero"/></g></g></g><g clip-path="url(#dac4eb7134)"><g clip-path="url(#10f740d381)"><g clip-path="url(#de1940dd90)"><path fill="#f37033" d="M 120.910156 165.082031 L 111.761719 156.871094 C 110.449219 155.683594 108.523438 155.65625 107.484375 156.816406 L 100.300781 164.820312 C 99.261719 165.980469 99.5 167.878906 100.8125 169.066406 L 109.945312 177.28125 C 111.269531 178.464844 113.179688 178.484375 114.214844 177.339844 L 121.40625 169.332031 C 122.460938 168.171875 122.238281 166.28125 120.910156 165.082031 Z M 120.910156 165.082031 " fill-opacity="1" fill-rule="nonzero"/></g></g></g><g clip-path="url(#9ee7cce4d4)"><g clip-path="url(#a96b382dfb)"><g clip-path="url(#492bd8edd0)"><path fill="#f37033" d="M 124.324219 157.175781 C 125.4375 158.175781 127.035156 158.191406 127.894531 157.234375 L 133.890625 150.554688 C 134.757812 149.59375 134.558594 148.019531 133.449219 147.015625 L 125.84375 140.195312 C 124.734375 139.203125 123.144531 139.175781 122.289062 140.132812 L 116.292969 146.8125 C 115.433594 147.773438 115.621094 149.347656 116.730469 150.335938 Z M 124.324219 157.175781 " fill-opacity="1" fill-rule="nonzero"/></g></g></g><g clip-path="url(#898575f055)"><g clip-path="url(#5c3689b261)"><g clip-path="url(#a6cf1fb89c)"><path fill="#f37033" d="M 100.476562 148.125 L 97.839844 151.058594 C 97.464844 151.488281 97.527344 152.183594 98.007812 152.613281 L 101.351562 155.601562 C 101.832031 156.03125 102.53125 156.03125 102.925781 155.613281 L 105.558594 152.679688 C 105.9375 152.25 105.859375 151.554688 105.378906 151.125 L 102.046875 148.132812 C 101.566406 147.691406 100.863281 147.695312 100.476562 148.125 Z M 100.476562 148.125 " fill-opacity="1" fill-rule="nonzero"/></g></g></g><g clip-path="url(#3e9f97314a)"><g clip-path="url(#9ea6e9c8ce)"><g clip-path="url(#a5e5c14270)"><path fill="#f37033" d="M 93.460938 157.980469 L 91.707031 159.949219 C 91.449219 160.230469 91.496094 160.699219 91.824219 160.984375 L 94.046875 162.976562 C 94.363281 163.273438 94.832031 163.277344 95.085938 162.984375 L 96.851562 161.011719 C 97.109375 160.730469 97.046875 160.265625 96.71875 159.980469 L 94.496094 157.976562 C 94.183594 157.703125 93.714844 157.699219 93.460938 157.980469 Z M 93.460938 157.980469 " fill-opacity="1" fill-rule="nonzero"/></g></g></g><g clip-path="url(#9a9169deee)"><g clip-path="url(#3f7fff626f)"><g clip-path="url(#e37e342d02)"><path fill="#f37033" d="M 172.632812 86.019531 C 173.996094 87.246094 175.96875 87.257812 177.03125 86.082031 L 184.429688 77.84375 C 185.5 76.652344 185.261719 74.699219 183.917969 73.480469 L 174.519531 65.03125 C 173.160156 63.816406 171.195312 63.785156 170.121094 64.96875 L 162.722656 73.203125 C 161.652344 74.398438 161.890625 76.351562 163.25 77.578125 Z M 172.632812 86.019531 " fill-opacity="1" fill-rule="nonzero"/></g></g></g><g clip-path="url(#87bc921fec)"><g clip-path="url(#423a91971a)"><g clip-path="url(#6d5edcfc3e)"><path fill="#f37033" d="M 152.976562 86.898438 C 153.804688 87.632812 155.003906 87.652344 155.65625 86.925781 L 160.164062 81.917969 C 160.808594 81.203125 160.671875 80.003906 159.84375 79.257812 L 154.125 74.117188 C 153.296875 73.371094 152.101562 73.363281 151.457031 74.078125 L 146.941406 79.113281 C 146.300781 79.824219 146.433594 81.023438 147.261719 81.769531 Z M 152.976562 86.898438 " fill-opacity="1" fill-rule="nonzero"/></g></g></g><g clip-path="url(#f26975ba03)"><g clip-path="url(#a33e470c4e)"><g clip-path="url(#882adccfb4)"><path fill="#f37033" d="M 162.210938 93.003906 L 164.878906 95.390625 C 165.261719 95.738281 165.820312 95.746094 166.125 95.402344 L 168.230469 93.0625 C 168.539062 92.726562 168.464844 92.164062 168.085938 91.828125 L 165.433594 89.433594 C 165.050781 89.085938 164.480469 89.082031 164.1875 89.425781 L 162.082031 91.773438 C 161.757812 92.101562 161.828125 92.652344 162.210938 93.003906 Z M 162.210938 93.003906 " fill-opacity="1" fill-rule="nonzero"/></g></g></g><g clip-path="url(#51f5715ef6)"><g clip-path="url(#ff9e47fefc)"><g clip-path="url(#ee2df6f0b0)"><path fill="#f37033" d="M 143.023438 153.789062 C 141.652344 152.566406 139.675781 152.539062 138.589844 153.734375 L 131.121094 162.054688 C 130.050781 163.246094 130.28125 165.226562 131.65625 166.449219 L 141.136719 174.972656 C 142.511719 176.207031 144.515625 176.230469 145.574219 175.039062 L 153.054688 166.71875 C 154.140625 165.523438 153.894531 163.542969 152.519531 162.308594 Z M 143.023438 153.789062 " fill-opacity="1" fill-rule="nonzero"/></g></g></g><g clip-path="url(#dc9b25543c)"><g clip-path="url(#7056805e5c)"><g clip-path="url(#3d78ef0c22)"><path fill="#f37033" d="M 130.167969 170.859375 C 129.652344 170.398438 128.925781 170.394531 128.515625 170.84375 L 125.726562 173.941406 C 125.328125 174.390625 125.414062 175.121094 125.925781 175.578125 L 129.441406 178.738281 C 129.953125 179.195312 130.695312 179.199219 131.078125 178.753906 L 133.871094 175.65625 C 134.265625 175.207031 134.179688 174.476562 133.679688 174.015625 Z M 130.167969 170.859375 " fill-opacity="1" fill-rule="nonzero"/></g></g></g><g clip-path="url(#117c99d58d)"><g clip-path="url(#16393825f1)"><g clip-path="url(#5f6b73248e)"><path fill="#f37033" d="M 160.1875 166.390625 C 159.773438 166.023438 159.160156 166.019531 158.847656 166.378906 L 156.597656 168.882812 C 156.273438 169.246094 156.351562 169.835938 156.765625 170.214844 L 159.617188 172.78125 C 160.03125 173.148438 160.628906 173.15625 160.957031 172.792969 L 163.203125 170.292969 C 163.53125 169.925781 163.453125 169.335938 163.039062 168.96875 Z M 160.1875 166.390625 " fill-opacity="1" fill-rule="nonzero"/></g></g></g><g clip-path="url(#077b38f05f)"><g clip-path="url(#1f3717e522)"><g clip-path="url(#36f360466b)"><path fill="#f37033" d="M 104.890625 178.207031 C 103.332031 176.796875 101.066406 176.761719 99.828125 178.136719 L 91.320312 187.613281 C 90.085938 188.988281 90.355469 191.234375 91.929688 192.640625 L 102.75 202.355469 C 104.320312 203.765625 106.570312 203.792969 107.8125 202.429688 L 116.332031 192.945312 C 117.570312 191.570312 117.285156 189.332031 115.726562 187.929688 Z M 104.890625 178.207031 " fill-opacity="1" fill-rule="nonzero"/></g></g></g><g clip-path="url(#25fa37c555)"><g clip-path="url(#5e2e9c5d7e)"><g clip-path="url(#47acfcd494)"><path fill="#f37033" d="M 125.203125 178.855469 C 124.375 178.109375 123.167969 178.101562 122.523438 178.816406 L 118.019531 183.835938 C 117.375 184.5625 117.507812 185.75 118.335938 186.496094 L 124.054688 191.636719 C 124.882812 192.367188 126.078125 192.390625 126.722656 191.675781 L 131.230469 186.65625 C 131.871094 185.941406 131.726562 184.746094 130.910156 183.996094 Z M 125.203125 178.855469 " fill-opacity="1" fill-rule="nonzero"/></g></g></g><g clip-path="url(#6061c4001b)"><g clip-path="url(#453dda9041)"><g clip-path="url(#7025f9b269)"><path fill="#f37033" d="M 89.367188 145.679688 C 89.878906 146.136719 90.617188 146.140625 91.015625 145.695312 L 93.808594 142.59375 C 94.21875 142.144531 94.128906 141.414062 93.617188 140.953125 L 90.105469 137.796875 C 89.589844 137.335938 88.863281 137.332031 88.453125 137.78125 L 85.664062 140.882812 C 85.265625 141.328125 85.339844 142.0625 85.851562 142.519531 Z M 89.367188 145.679688 " fill-opacity="1" fill-rule="nonzero"/></g></g></g><g clip-path="url(#d8ebf5225f)"><g clip-path="url(#c9081f20d3)"><g clip-path="url(#4403b8294c)"><path fill="#f37033" d="M 92.628906 179.464844 C 93.375 180.128906 94.425781 180.132812 95.019531 179.480469 L 99.054688 174.992188 C 99.640625 174.355469 99.511719 173.285156 98.78125 172.632812 L 93.691406 168.054688 C 92.960938 167.386719 91.898438 167.386719 91.3125 168.03125 L 87.277344 172.523438 C 86.695312 173.171875 86.824219 174.230469 87.554688 174.894531 Z M 92.628906 179.464844 " fill-opacity="1" fill-rule="nonzero"/></g></g></g><g clip-path="url(#41b9353b9a)"><g clip-path="url(#4185b21887)"><g clip-path="url(#037e4d02eb)"><path fill="#f37033" d="M 91.324219 131.378906 C 91.839844 131.839844 92.578125 131.839844 92.976562 131.394531 L 95.765625 128.292969 C 96.175781 127.84375 96.089844 127.113281 95.578125 126.652344 L 92.0625 123.496094 C 91.550781 123.039062 90.824219 123.03125 90.414062 123.480469 L 87.621094 126.582031 C 87.226562 127.027344 87.3125 127.757812 87.8125 128.222656 Z M 91.324219 131.378906 " fill-opacity="1" fill-rule="nonzero"/></g></g></g><g clip-path="url(#ca1c17272f)"><g clip-path="url(#9977fcc936)"><g clip-path="url(#f829f70618)"><path fill="#f37033" d="M 140.152344 79.03125 C 140.667969 79.488281 141.40625 79.492188 141.804688 79.046875 L 144.582031 75.949219 C 144.992188 75.5 144.90625 74.765625 144.394531 74.308594 L 140.878906 71.152344 C 140.367188 70.691406 139.625 70.6875 139.226562 71.136719 L 136.4375 74.238281 C 136.039062 74.671875 136.113281 75.417969 136.628906 75.875 Z M 140.152344 79.03125 " fill-opacity="1" fill-rule="nonzero"/></g></g></g><g clip-path="url(#70647444ca)"><g clip-path="url(#f08339f1d4)"><g clip-path="url(#fe6defdd51)"><path fill="#f37033" d="M 202.351562 100.832031 L 199.5625 103.933594 C 199.164062 104.378906 199.238281 105.113281 199.753906 105.574219 L 203.265625 108.730469 C 203.78125 109.1875 204.519531 109.191406 204.917969 108.746094 L 207.695312 105.648438 C 208.105469 105.199219 208.019531 104.46875 207.503906 104.007812 L 203.992188 100.851562 C 203.492188 100.386719 202.761719 100.371094 202.351562 100.832031 Z M 202.351562 100.832031 " fill-opacity="1" fill-rule="nonzero"/></g></g></g><g clip-path="url(#48ebff54b3)"><g clip-path="url(#03e0dc95c5)"><g clip-path="url(#c4e49f6241)"><path fill="#f37033" d="M 198.65625 128.859375 C 197.347656 127.683594 195.449219 127.664062 194.429688 128.804688 L 187.320312 136.726562 C 186.300781 137.867188 186.523438 139.746094 187.832031 140.921875 L 196.851562 149.035156 C 198.15625 150.199219 200.058594 150.230469 201.078125 149.089844 L 208.1875 141.167969 C 209.207031 140.027344 208.984375 138.136719 207.675781 136.972656 Z M 198.65625 128.859375 " fill-opacity="1" fill-rule="nonzero"/></g></g></g><g clip-path="url(#88fd8b6525)"><g clip-path="url(#d03676a9a3)"><g clip-path="url(#bd3158f679)"><path fill="#f37033" d="M 179.65625 155.363281 C 179.273438 155.015625 178.710938 155.007812 178.40625 155.355469 L 176.304688 157.703125 C 176.011719 158.046875 176.066406 158.59375 176.460938 158.9375 L 179.125 161.328125 C 179.507812 161.675781 180.070312 161.683594 180.375 161.335938 L 182.476562 158.984375 C 182.785156 158.652344 182.714844 158.097656 182.34375 157.746094 Z M 179.65625 155.363281 " fill-opacity="1" fill-rule="nonzero"/></g></g></g><g clip-path="url(#d200f81ed7)"><g clip-path="url(#9426787c15)"><g clip-path="url(#945723c4f9)"><path fill="#f37033" d="M 139.34375 178.765625 C 138.960938 178.417969 138.390625 178.414062 138.082031 178.757812 L 135.976562 181.097656 C 135.683594 181.429688 135.738281 181.984375 136.121094 182.332031 L 138.789062 184.722656 C 139.171875 185.070312 139.730469 185.078125 140.035156 184.730469 L 142.136719 182.382812 C 142.445312 182.046875 142.386719 181.476562 141.996094 181.144531 Z M 139.34375 178.765625 " fill-opacity="1" fill-rule="nonzero"/></g></g></g><g clip-path="url(#079f89c962)"><g clip-path="url(#0f4124bfa7)"><g clip-path="url(#853e030b29)"><path fill="#f37033" d="M 230.847656 109.136719 L 228.179688 106.746094 C 227.796875 106.398438 227.226562 106.394531 226.933594 106.738281 L 224.828125 109.074219 C 224.519531 109.410156 224.585938 109.960938 224.96875 110.3125 L 227.625 112.703125 C 228.007812 113.050781 228.566406 113.058594 228.871094 112.710938 L 230.972656 110.363281 C 231.285156 110.039062 231.226562 109.472656 230.847656 109.136719 Z M 230.847656 109.136719 " fill-opacity="1" fill-rule="nonzero"/></g></g></g><g clip-path="url(#6d133cb5b1)"><g clip-path="url(#01e69dc604)"><g clip-path="url(#a45871c518)"><path fill="#ffffff" d="M 231.628906 54.554688 C 213.421875 42.671875 176.003906 22.625 138.277344 33.457031 C 105.554688 39.9375 77.863281 61.945312 62.363281 91.246094 C 57.464844 100.523438 53.894531 110.53125 51.4375 120.738281 C 48.203125 134.113281 46.402344 150.566406 48.480469 169.648438 C 53.128906 212.382812 76.816406 239.667969 106.308594 262.710938 C 121.566406 274.628906 133.390625 287.527344 141.257812 297.203125 C 141.097656 272.261719 120.21875 255.777344 105.28125 238.808594 C 89.488281 220.871094 78.550781 198.992188 74.542969 175.359375 C 72.332031 162.367188 72.320312 148.183594 74.875 135.21875 C 76.628906 126.378906 79.425781 116.996094 83.273438 108.828125 C 102.761719 67.550781 144.578125 59.582031 144.578125 59.582031 C 144.578125 59.582031 185.144531 47.636719 221.269531 75.101562 C 221.160156 75.023438 221.203125 75.039062 221.613281 75.339844 C 222.3125 75.871094 222.160156 75.765625 221.859375 75.554688 C 250.941406 99.082031 254.539062 133.398438 206.125 158.203125 C 206.125 158.203125 273.171875 140.507812 262.722656 97.242188 C 260.796875 89.226562 256.207031 80.339844 248.035156 70.527344 C 242.976562 64.414062 237.464844 59.117188 231.628906 54.554688 Z M 231.628906 54.554688 " fill-opacity="1" fill-rule="nonzero"/></g></g></g><g clip-path="url(#0411c63c53)"><g clip-path="url(#759202cc79)"><g clip-path="url(#896f0adf9a)"><path fill="#ffffff" d="M 230.3125 287.640625 L 158.679688 304.984375 C 154.722656 305.941406 152.289062 309.925781 153.242188 313.871094 C 154.203125 317.828125 158.1875 320.261719 162.144531 319.304688 L 233.777344 301.964844 C 237.722656 301.007812 240.15625 297.023438 239.199219 293.066406 C 238.242188 289.121094 234.257812 286.6875 230.3125 287.640625 Z M 230.3125 287.640625 " fill-opacity="1" fill-rule="nonzero"/></g></g></g><g clip-path="url(#af1a05dbe8)"><g clip-path="url(#f7022e81b0)"><g clip-path="url(#7aac5d83f5)"><path fill="#ffffff" d="M 227.195312 310.820312 L 200.316406 317.328125 L 173.449219 323.832031 C 172.113281 324.15625 171.066406 325.03125 170.453125 326.136719 C 169.914062 327.125 169.730469 328.296875 170.015625 329.472656 C 170.621094 331.984375 178.339844 346.886719 194.339844 343.011719 L 205.871094 340.222656 L 217.398438 337.429688 C 222.226562 336.261719 225.601562 333.914062 227.941406 331.15625 C 233.363281 324.734375 233.265625 316.03125 232.84375 314.277344 C 232.230469 311.742188 229.707031 310.210938 227.195312 310.820312 Z M 227.195312 310.820312 " fill-opacity="1" fill-rule="nonzero"/></g></g></g><g fill="#ffffff" fill-opacity="1"><g transform="translate(279.573066, 247.970491)"><g><path d="M 42.328125 1.734375 C 30.765625 1.734375 20.238281 -0.867188 10.75 -6.078125 C 8.789062 -7.460938 7.8125 -9.367188 7.8125 -11.796875 C 7.8125 -13.648438 8.445312 -15.269531 9.71875 -16.65625 C 10.988281 -18.039062 12.609375 -18.734375 14.578125 -18.734375 C 15.609375 -18.734375 16.644531 -18.503906 17.6875 -18.046875 C 21.394531 -16.421875 25.097656 -15.144531 28.796875 -14.21875 C 32.492188 -13.300781 36.65625 -12.84375 41.28125 -12.84375 C 54.125 -12.84375 60.546875 -16.945312 60.546875 -25.15625 C 60.546875 -27.8125 59.066406 -29.832031 56.109375 -31.21875 C 53.160156 -32.613281 48.332031 -34.175781 41.625 -35.90625 C 34.800781 -37.53125 29.164062 -39.207031 24.71875 -40.9375 C 20.269531 -42.675781 16.453125 -45.304688 13.265625 -48.828125 C 10.085938 -52.359375 8.5 -57.015625 8.5 -62.796875 C 8.5 -70.890625 11.414062 -77.476562 17.25 -82.5625 C 23.09375 -87.65625 31.453125 -90.203125 42.328125 -90.203125 C 51.234375 -90.203125 59.617188 -88.753906 67.484375 -85.859375 C 69.097656 -85.398438 70.335938 -84.535156 71.203125 -83.265625 C 72.078125 -81.992188 72.515625 -80.664062 72.515625 -79.28125 C 72.515625 -77.425781 71.847656 -75.804688 70.515625 -74.421875 C 69.179688 -73.035156 67.535156 -72.34375 65.578125 -72.34375 C 64.992188 -72.34375 64.238281 -72.457031 63.3125 -72.6875 C 56.601562 -74.769531 50.015625 -75.8125 43.546875 -75.8125 C 37.296875 -75.8125 32.40625 -74.679688 28.875 -72.421875 C 25.351562 -70.171875 23.59375 -67.25 23.59375 -63.65625 C 23.59375 -60.1875 25.210938 -57.644531 28.453125 -56.03125 C 31.691406 -54.414062 36.722656 -52.851562 43.546875 -51.34375 C 50.367188 -49.613281 55.914062 -47.910156 60.1875 -46.234375 C 64.46875 -44.554688 68.140625 -41.921875 71.203125 -38.328125 C 74.273438 -34.742188 75.8125 -29.945312 75.8125 -23.9375 C 75.8125 -16.539062 72.890625 -10.410156 67.046875 -5.546875 C 61.203125 -0.691406 52.960938 1.734375 42.328125 1.734375 Z M 42.328125 1.734375 "/></g></g></g><g fill="#ffffff" fill-opacity="1"><g transform="translate(349.990518, 247.970491)"><g><path d="M 21.515625 0.875 C 19.316406 0.875 17.460938 0.125 15.953125 -1.375 C 14.453125 -2.882812 13.703125 -4.738281 13.703125 -6.9375 L 13.703125 -81.359375 C 13.703125 -83.554688 14.453125 -85.4375 15.953125 -87 C 17.460938 -88.5625 19.316406 -89.34375 21.515625 -89.34375 C 23.710938 -89.34375 25.585938 -88.5625 27.140625 -87 C 28.703125 -85.4375 29.484375 -83.554688 29.484375 -81.359375 L 29.484375 -74.25 C 32.722656 -78.875 36.625 -82.6875 41.1875 -85.6875 C 45.757812 -88.695312 51.691406 -90.203125 58.984375 -90.203125 C 65.453125 -90.203125 71 -88.46875 75.625 -85 C 80.257812 -81.53125 83.554688 -77.3125 85.515625 -72.34375 C 92.691406 -84.25 103.332031 -90.203125 117.4375 -90.203125 C 123.914062 -90.203125 129.320312 -88.582031 133.65625 -85.34375 C 137.988281 -82.101562 141.195312 -77.9375 143.28125 -72.84375 C 145.363281 -67.757812 146.40625 -62.441406 146.40625 -56.890625 L 146.40625 -6.9375 C 146.40625 -4.738281 145.625 -2.882812 144.0625 -1.375 C 142.5 0.125 140.617188 0.875 138.421875 0.875 C 136.222656 0.875 134.375 0.125 132.875 -1.375 C 131.375 -2.882812 130.625 -4.738281 130.625 -6.9375 L 130.625 -53.78125 C 130.625 -61.289062 129.289062 -66.804688 126.625 -70.328125 C 123.96875 -73.859375 119.398438 -75.625 112.921875 -75.625 C 107.023438 -75.625 102.140625 -74.09375 98.265625 -71.03125 C 94.390625 -67.96875 90.953125 -63.953125 87.953125 -58.984375 L 87.953125 -6.9375 C 87.953125 -4.738281 87.171875 -2.882812 85.609375 -1.375 C 84.046875 0.125 82.164062 0.875 79.96875 0.875 C 77.769531 0.875 75.914062 0.125 74.40625 -1.375 C 72.90625 -2.882812 72.15625 -4.738281 72.15625 -6.9375 L 72.15625 -53.78125 C 72.15625 -61.289062 70.828125 -66.804688 68.171875 -70.328125 C 65.515625 -73.859375 60.945312 -75.625 54.46875 -75.625 C 48.570312 -75.625 43.6875 -74.09375 39.8125 -71.03125 C 35.9375 -67.96875 32.492188 -63.953125 29.484375 -58.984375 L 29.484375 -6.9375 C 29.484375 -4.738281 28.703125 -2.882812 27.140625 -1.375 C 25.585938 0.125 23.710938 0.875 21.515625 0.875 Z M 21.515625 0.875 "/></g></g></g><g fill="#ffffff" fill-opacity="1"><g transform="translate(496.379765, 247.970491)"><g><path d="M 36.25 1.734375 C 31.164062 1.734375 26.453125 0.691406 22.109375 -1.390625 C 17.773438 -3.472656 14.335938 -6.507812 11.796875 -10.5 C 9.253906 -14.488281 7.984375 -19.082031 7.984375 -24.28125 C 7.984375 -32.84375 11.363281 -39.664062 18.125 -44.75 C 24.894531 -49.84375 34.8125 -52.390625 47.875 -52.390625 L 68.859375 -52.390625 L 68.859375 -53.78125 C 68.859375 -61.40625 66.976562 -66.894531 63.21875 -70.25 C 59.46875 -73.601562 53.601562 -75.28125 45.625 -75.28125 C 41.226562 -75.28125 37.320312 -74.929688 33.90625 -74.234375 C 30.5 -73.546875 26.710938 -72.507812 22.546875 -71.125 C 21.617188 -70.894531 20.867188 -70.78125 20.296875 -70.78125 C 18.554688 -70.78125 17.050781 -71.414062 15.78125 -72.6875 C 14.507812 -73.957031 13.875 -75.515625 13.875 -77.359375 C 13.875 -80.484375 15.378906 -82.679688 18.390625 -83.953125 C 28.210938 -88.117188 38.210938 -90.203125 48.390625 -90.203125 C 56.367188 -90.203125 63.101562 -88.582031 68.59375 -85.34375 C 74.09375 -82.101562 78.144531 -77.910156 80.75 -72.765625 C 83.351562 -67.617188 84.65625 -62.039062 84.65625 -56.03125 L 84.65625 -6.9375 C 84.65625 -4.738281 83.875 -2.882812 82.3125 -1.375 C 80.75 0.125 78.867188 0.875 76.671875 0.875 C 74.472656 0.875 72.617188 0.125 71.109375 -1.375 C 69.609375 -2.882812 68.859375 -4.738281 68.859375 -6.9375 L 68.859375 -11.453125 C 60.304688 -2.660156 49.4375 1.734375 36.25 1.734375 Z M 42.15625 -12.140625 C 47.238281 -12.140625 52.148438 -13.382812 56.890625 -15.875 C 61.640625 -18.363281 65.628906 -21.457031 68.859375 -25.15625 L 68.859375 -39.71875 L 49.953125 -39.71875 C 32.492188 -39.71875 23.765625 -35.148438 23.765625 -26.015625 C 23.765625 -21.859375 25.179688 -18.503906 28.015625 -15.953125 C 30.847656 -13.410156 35.5625 -12.140625 42.15625 -12.140625 Z M 42.15625 -12.140625 "/></g></g></g><g fill="#ffffff" fill-opacity="1"><g transform="translate(581.020235, 247.970491)"><g><path d="M 21.515625 0.875 C 19.316406 0.875 17.460938 0.125 15.953125 -1.375 C 14.453125 -2.882812 13.703125 -4.738281 13.703125 -6.9375 L 13.703125 -81.359375 C 13.703125 -83.554688 14.453125 -85.4375 15.953125 -87 C 17.460938 -88.5625 19.316406 -89.34375 21.515625 -89.34375 C 23.710938 -89.34375 25.585938 -88.5625 27.140625 -87 C 28.703125 -85.4375 29.484375 -83.554688 29.484375 -81.359375 L 29.484375 -73.890625 C 37.578125 -84.765625 46.65625 -90.203125 56.71875 -90.203125 L 57.59375 -90.203125 C 59.789062 -90.203125 61.609375 -89.445312 63.046875 -87.9375 C 64.492188 -86.4375 65.21875 -84.585938 65.21875 -82.390625 C 65.21875 -80.203125 64.46875 -78.410156 62.96875 -77.015625 C 61.46875 -75.628906 59.5625 -74.9375 57.25 -74.9375 L 56.375 -74.9375 C 50.820312 -74.9375 45.734375 -73.578125 41.109375 -70.859375 C 36.484375 -68.140625 32.609375 -64.410156 29.484375 -59.671875 L 29.484375 -6.9375 C 29.484375 -4.738281 28.703125 -2.882812 27.140625 -1.375 C 25.585938 0.125 23.710938 0.875 21.515625 0.875 Z M 21.515625 0.875 "/></g></g></g><g fill="#ffffff" fill-opacity="1"><g transform="translate(634.612837, 247.970491)"><g><path d="M 44.234375 1.734375 C 27.347656 1.734375 18.90625 -5.894531 18.90625 -21.15625 L 18.90625 -74.9375 L 6.59375 -74.9375 C 5.664062 -74.9375 4.882812 -75.253906 4.25 -75.890625 C 3.613281 -76.523438 3.296875 -77.304688 3.296875 -78.234375 C 3.296875 -79.390625 3.816406 -80.375 4.859375 -81.1875 L 28.453125 -104.25 C 29.492188 -105.289062 30.472656 -105.8125 31.390625 -105.8125 C 32.316406 -105.8125 33.097656 -105.460938 33.734375 -104.765625 C 34.367188 -104.078125 34.6875 -103.269531 34.6875 -102.34375 L 34.6875 -88.46875 L 54.296875 -88.46875 C 56.265625 -88.46875 57.882812 -87.832031 59.15625 -86.5625 C 60.425781 -85.289062 61.0625 -83.671875 61.0625 -81.703125 C 61.0625 -79.847656 60.425781 -78.253906 59.15625 -76.921875 C 57.882812 -75.597656 56.265625 -74.9375 54.296875 -74.9375 L 34.6875 -74.9375 L 34.6875 -22.546875 C 34.6875 -18.035156 35.753906 -15.171875 37.890625 -13.953125 C 40.035156 -12.742188 42.726562 -12.140625 45.96875 -12.140625 C 48.28125 -12.140625 50.59375 -12.488281 52.90625 -13.1875 C 53.375 -13.300781 53.863281 -13.414062 54.375 -13.53125 C 54.894531 -13.644531 55.5625 -13.703125 56.375 -13.703125 C 58 -13.703125 59.445312 -13.09375 60.71875 -11.875 C 61.988281 -10.664062 62.625 -9.191406 62.625 -7.453125 C 62.625 -4.796875 61.289062 -2.773438 58.625 -1.390625 C 54.113281 0.691406 49.316406 1.734375 44.234375 1.734375 Z M 44.234375 1.734375 "/></g></g></g><g fill="#ffffff" fill-opacity="1"><g transform="translate(688.031989, 247.970491)"><g/></g></g><g fill="#ffffff" fill-opacity="1"><g transform="translate(720.290027, 247.970491)"><g><path d="M 21.515625 0.875 C 19.316406 0.875 17.460938 0.125 15.953125 -1.375 C 14.453125 -2.882812 13.703125 -4.738281 13.703125 -6.9375 L 13.703125 -81.359375 C 13.703125 -83.554688 14.453125 -85.4375 15.953125 -87 C 17.460938 -88.5625 19.316406 -89.34375 21.515625 -89.34375 C 23.710938 -89.34375 25.585938 -88.5625 27.140625 -87 C 28.703125 -85.4375 29.484375 -83.554688 29.484375 -81.359375 L 29.484375 -74.25 C 32.722656 -78.875 36.625 -82.6875 41.1875 -85.6875 C 45.757812 -88.695312 51.691406 -90.203125 58.984375 -90.203125 C 65.453125 -90.203125 71 -88.46875 75.625 -85 C 80.257812 -81.53125 83.554688 -77.3125 85.515625 -72.34375 C 92.691406 -84.25 103.332031 -90.203125 117.4375 -90.203125 C 123.914062 -90.203125 129.320312 -88.582031 133.65625 -85.34375 C 137.988281 -82.101562 141.195312 -77.9375 143.28125 -72.84375 C 145.363281 -67.757812 146.40625 -62.441406 146.40625 -56.890625 L 146.40625 -6.9375 C 146.40625 -4.738281 145.625 -2.882812 144.0625 -1.375 C 142.5 0.125 140.617188 0.875 138.421875 0.875 C 136.222656 0.875 134.375 0.125 132.875 -1.375 C 131.375 -2.882812 130.625 -4.738281 130.625 -6.9375 L 130.625 -53.78125 C 130.625 -61.289062 129.289062 -66.804688 126.625 -70.328125 C 123.96875 -73.859375 119.398438 -75.625 112.921875 -75.625 C 107.023438 -75.625 102.140625 -74.09375 98.265625 -71.03125 C 94.390625 -67.96875 90.953125 -63.953125 87.953125 -58.984375 L 87.953125 -6.9375 C 87.953125 -4.738281 87.171875 -2.882812 85.609375 -1.375 C 84.046875 0.125 82.164062 0.875 79.96875 0.875 C 77.769531 0.875 75.914062 0.125 74.40625 -1.375 C 72.90625 -2.882812 72.15625 -4.738281 72.15625 -6.9375 L 72.15625 -53.78125 C 72.15625 -61.289062 70.828125 -66.804688 68.171875 -70.328125 C 65.515625 -73.859375 60.945312 -75.625 54.46875 -75.625 C 48.570312 -75.625 43.6875 -74.09375 39.8125 -71.03125 C 35.9375 -67.96875 32.492188 -63.953125 29.484375 -58.984375 L 29.484375 -6.9375 C 29.484375 -4.738281 28.703125 -2.882812 27.140625 -1.375 C 25.585938 0.125 23.710938 0.875 21.515625 0.875 Z M 21.515625 0.875 "/></g></g></g><g fill="#ffffff" fill-opacity="1"><g transform="translate(866.679302, 247.970491)"><g><path d="M 52.734375 1.734375 C 43.828125 1.734375 36.019531 -0.171875 29.3125 -3.984375 C 22.601562 -7.804688 17.425781 -13.210938 13.78125 -20.203125 C 10.144531 -27.203125 8.328125 -35.210938 8.328125 -44.234375 C 8.328125 -53.253906 10.144531 -61.257812 13.78125 -68.25 C 17.425781 -75.25 22.601562 -80.65625 29.3125 -84.46875 C 36.019531 -88.289062 43.828125 -90.203125 52.734375 -90.203125 C 61.523438 -90.203125 69.273438 -88.289062 75.984375 -84.46875 C 82.691406 -80.65625 87.894531 -75.25 91.59375 -68.25 C 95.289062 -61.257812 97.140625 -53.253906 97.140625 -44.234375 C 97.140625 -35.210938 95.289062 -27.203125 91.59375 -20.203125 C 87.894531 -13.210938 82.691406 -7.804688 75.984375 -3.984375 C 69.273438 -0.171875 61.523438 1.734375 52.734375 1.734375 Z M 52.734375 -12.65625 C 57.472656 -12.65625 62.007812 -13.753906 66.34375 -15.953125 C 70.6875 -18.148438 74.273438 -21.617188 77.109375 -26.359375 C 79.941406 -31.109375 81.359375 -37.125 81.359375 -44.40625 C 81.359375 -51.570312 79.941406 -57.523438 77.109375 -62.265625 C 74.273438 -67.015625 70.6875 -70.457031 66.34375 -72.59375 C 62.007812 -74.738281 57.472656 -75.8125 52.734375 -75.8125 C 47.878906 -75.8125 43.28125 -74.738281 38.9375 -72.59375 C 34.601562 -70.457031 31.046875 -67.015625 28.265625 -62.265625 C 25.492188 -57.523438 24.109375 -51.570312 24.109375 -44.40625 C 24.109375 -37.125 25.492188 -31.109375 28.265625 -26.359375 C 31.046875 -21.617188 34.601562 -18.148438 38.9375 -15.953125 C 43.28125 -13.753906 47.878906 -12.65625 52.734375 -12.65625 Z M 52.734375 -12.65625 "/></g></g></g><g fill="#ffffff" fill-opacity="1"><g transform="translate(959.29859, 247.970491)"><g><path d="M 44.234375 1.734375 C 27.347656 1.734375 18.90625 -5.894531 18.90625 -21.15625 L 18.90625 -74.9375 L 6.59375 -74.9375 C 5.664062 -74.9375 4.882812 -75.253906 4.25 -75.890625 C 3.613281 -76.523438 3.296875 -77.304688 3.296875 -78.234375 C 3.296875 -79.390625 3.816406 -80.375 4.859375 -81.1875 L 28.453125 -104.25 C 29.492188 -105.289062 30.472656 -105.8125 31.390625 -105.8125 C 32.316406 -105.8125 33.097656 -105.460938 33.734375 -104.765625 C 34.367188 -104.078125 34.6875 -103.269531 34.6875 -102.34375 L 34.6875 -88.46875 L 54.296875 -88.46875 C 56.265625 -88.46875 57.882812 -87.832031 59.15625 -86.5625 C 60.425781 -85.289062 61.0625 -83.671875 61.0625 -81.703125 C 61.0625 -79.847656 60.425781 -78.253906 59.15625 -76.921875 C 57.882812 -75.597656 56.265625 -74.9375 54.296875 -74.9375 L 34.6875 -74.9375 L 34.6875 -22.546875 C 34.6875 -18.035156 35.753906 -15.171875 37.890625 -13.953125 C 40.035156 -12.742188 42.726562 -12.140625 45.96875 -12.140625 C 48.28125 -12.140625 50.59375 -12.488281 52.90625 -13.1875 C 53.375 -13.300781 53.863281 -13.414062 54.375 -13.53125 C 54.894531 -13.644531 55.5625 -13.703125 56.375 -13.703125 C 58 -13.703125 59.445312 -13.09375 60.71875 -11.875 C 61.988281 -10.664062 62.625 -9.191406 62.625 -7.453125 C 62.625 -4.796875 61.289062 -2.773438 58.625 -1.390625 C 54.113281 0.691406 49.316406 1.734375 44.234375 1.734375 Z M 44.234375 1.734375 "/></g></g></g><g fill="#ffffff" fill-opacity="1"><g transform="translate(1012.717768, 247.970491)"><g><path d="M 21.15625 -106.515625 C 18.726562 -106.515625 16.644531 -107.378906 14.90625 -109.109375 C 13.175781 -110.847656 12.3125 -112.929688 12.3125 -115.359375 L 12.3125 -116.046875 C 12.3125 -118.472656 13.175781 -120.550781 14.90625 -122.28125 C 16.644531 -124.019531 18.726562 -124.890625 21.15625 -124.890625 L 22.203125 -124.890625 C 24.628906 -124.890625 26.707031 -124.019531 28.4375 -122.28125 C 30.175781 -120.550781 31.046875 -118.472656 31.046875 -116.046875 L 31.046875 -115.359375 C 31.046875 -112.929688 30.175781 -110.847656 28.4375 -109.109375 C 26.707031 -107.378906 24.628906 -106.515625 22.203125 -106.515625 Z M 21.515625 0.875 C 19.316406 0.875 17.460938 0.125 15.953125 -1.375 C 14.453125 -2.882812 13.703125 -4.738281 13.703125 -6.9375 L 13.703125 -81.359375 C 13.703125 -83.554688 14.453125 -85.4375 15.953125 -87 C 17.460938 -88.5625 19.316406 -89.34375 21.515625 -89.34375 C 23.828125 -89.34375 25.734375 -88.585938 27.234375 -87.078125 C 28.734375 -85.578125 29.484375 -83.671875 29.484375 -81.359375 L 29.484375 -6.9375 C 29.484375 -4.738281 28.703125 -2.882812 27.140625 -1.375 C 25.585938 0.125 23.710938 0.875 21.515625 0.875 Z M 21.515625 0.875 "/></g></g></g><g fill="#ffffff" fill-opacity="1"><g transform="translate(1043.067874, 247.970491)"><g><path d="M 45.109375 0.875 C 43.023438 0.875 41.113281 0.265625 39.375 -0.953125 C 37.644531 -2.171875 36.375 -3.703125 35.5625 -5.546875 L 5.375 -77.71875 C 4.800781 -79.101562 4.515625 -80.316406 4.515625 -81.359375 C 4.515625 -83.554688 5.265625 -85.4375 6.765625 -87 C 8.265625 -88.5625 10.113281 -89.34375 12.3125 -89.34375 C 13.820312 -89.34375 15.238281 -88.90625 16.5625 -88.03125 C 17.894531 -87.164062 18.847656 -86.097656 19.421875 -84.828125 L 45.96875 -17.515625 L 72.515625 -84.828125 C 73.085938 -86.097656 74.035156 -87.164062 75.359375 -88.03125 C 76.691406 -88.90625 78.113281 -89.34375 79.625 -89.34375 C 81.820312 -89.34375 83.671875 -88.5625 85.171875 -87 C 86.671875 -85.4375 87.421875 -83.554688 87.421875 -81.359375 C 87.421875 -80.316406 87.132812 -79.101562 86.5625 -77.71875 L 56.375 -5.546875 C 55.5625 -3.703125 54.285156 -2.171875 52.546875 -0.953125 C 50.816406 0.265625 48.914062 0.875 46.84375 0.875 Z M 45.109375 0.875 "/></g></g></g><g fill="#ffffff" fill-opacity="1"><g transform="translate(1122.157888, 247.970491)"><g><path d="M 36.25 1.734375 C 31.164062 1.734375 26.453125 0.691406 22.109375 -1.390625 C 17.773438 -3.472656 14.335938 -6.507812 11.796875 -10.5 C 9.253906 -14.488281 7.984375 -19.082031 7.984375 -24.28125 C 7.984375 -32.84375 11.363281 -39.664062 18.125 -44.75 C 24.894531 -49.84375 34.8125 -52.390625 47.875 -52.390625 L 68.859375 -52.390625 L 68.859375 -53.78125 C 68.859375 -61.40625 66.976562 -66.894531 63.21875 -70.25 C 59.46875 -73.601562 53.601562 -75.28125 45.625 -75.28125 C 41.226562 -75.28125 37.320312 -74.929688 33.90625 -74.234375 C 30.5 -73.546875 26.710938 -72.507812 22.546875 -71.125 C 21.617188 -70.894531 20.867188 -70.78125 20.296875 -70.78125 C 18.554688 -70.78125 17.050781 -71.414062 15.78125 -72.6875 C 14.507812 -73.957031 13.875 -75.515625 13.875 -77.359375 C 13.875 -80.484375 15.378906 -82.679688 18.390625 -83.953125 C 28.210938 -88.117188 38.210938 -90.203125 48.390625 -90.203125 C 56.367188 -90.203125 63.101562 -88.582031 68.59375 -85.34375 C 74.09375 -82.101562 78.144531 -77.910156 80.75 -72.765625 C 83.351562 -67.617188 84.65625 -62.039062 84.65625 -56.03125 L 84.65625 -6.9375 C 84.65625 -4.738281 83.875 -2.882812 82.3125 -1.375 C 80.75 0.125 78.867188 0.875 76.671875 0.875 C 74.472656 0.875 72.617188 0.125 71.109375 -1.375 C 69.609375 -2.882812 68.859375 -4.738281 68.859375 -6.9375 L 68.859375 -11.453125 C 60.304688 -2.660156 49.4375 1.734375 36.25 1.734375 Z M 42.15625 -12.140625 C 47.238281 -12.140625 52.148438 -13.382812 56.890625 -15.875 C 61.640625 -18.363281 65.628906 -21.457031 68.859375 -25.15625 L 68.859375 -39.71875 L 49.953125 -39.71875 C 32.492188 -39.71875 23.765625 -35.148438 23.765625 -26.015625 C 23.765625 -21.859375 25.179688 -18.503906 28.015625 -15.953125 C 30.847656 -13.410156 35.5625 -12.140625 42.15625 -12.140625 Z M 42.15625 -12.140625 "/></g></g></g><g fill="#ffffff" fill-opacity="1"><g transform="translate(1206.79833, 247.970491)"><g><path d="M 44.234375 1.734375 C 27.347656 1.734375 18.90625 -5.894531 18.90625 -21.15625 L 18.90625 -74.9375 L 6.59375 -74.9375 C 5.664062 -74.9375 4.882812 -75.253906 4.25 -75.890625 C 3.613281 -76.523438 3.296875 -77.304688 3.296875 -78.234375 C 3.296875 -79.390625 3.816406 -80.375 4.859375 -81.1875 L 28.453125 -104.25 C 29.492188 -105.289062 30.472656 -105.8125 31.390625 -105.8125 C 32.316406 -105.8125 33.097656 -105.460938 33.734375 -104.765625 C 34.367188 -104.078125 34.6875 -103.269531 34.6875 -102.34375 L 34.6875 -88.46875 L 54.296875 -88.46875 C 56.265625 -88.46875 57.882812 -87.832031 59.15625 -86.5625 C 60.425781 -85.289062 61.0625 -83.671875 61.0625 -81.703125 C 61.0625 -79.847656 60.425781 -78.253906 59.15625 -76.921875 C 57.882812 -75.597656 56.265625 -74.9375 54.296875 -74.9375 L 34.6875 -74.9375 L 34.6875 -22.546875 C 34.6875 -18.035156 35.753906 -15.171875 37.890625 -13.953125 C 40.035156 -12.742188 42.726562 -12.140625 45.96875 -12.140625 C 48.28125 -12.140625 50.59375 -12.488281 52.90625 -13.1875 C 53.375 -13.300781 53.863281 -13.414062 54.375 -13.53125 C 54.894531 -13.644531 55.5625 -13.703125 56.375 -13.703125 C 58 -13.703125 59.445312 -13.09375 60.71875 -11.875 C 61.988281 -10.664062 62.625 -9.191406 62.625 -7.453125 C 62.625 -4.796875 61.289062 -2.773438 58.625 -1.390625 C 54.113281 0.691406 49.316406 1.734375 44.234375 1.734375 Z M 44.234375 1.734375 "/></g></g></g><g fill="#ffffff" fill-opacity="1"><g transform="translate(1260.217455, 247.970491)"><g><path d="M 21.15625 -106.515625 C 18.726562 -106.515625 16.644531 -107.378906 14.90625 -109.109375 C 13.175781 -110.847656 12.3125 -112.929688 12.3125 -115.359375 L 12.3125 -116.046875 C 12.3125 -118.472656 13.175781 -120.550781 14.90625 -122.28125 C 16.644531 -124.019531 18.726562 -124.890625 21.15625 -124.890625 L 22.203125 -124.890625 C 24.628906 -124.890625 26.707031 -124.019531 28.4375 -122.28125 C 30.175781 -120.550781 31.046875 -118.472656 31.046875 -116.046875 L 31.046875 -115.359375 C 31.046875 -112.929688 30.175781 -110.847656 28.4375 -109.109375 C 26.707031 -107.378906 24.628906 -106.515625 22.203125 -106.515625 Z M 21.515625 0.875 C 19.316406 0.875 17.460938 0.125 15.953125 -1.375 C 14.453125 -2.882812 13.703125 -4.738281 13.703125 -6.9375 L 13.703125 -81.359375 C 13.703125 -83.554688 14.453125 -85.4375 15.953125 -87 C 17.460938 -88.5625 19.316406 -89.34375 21.515625 -89.34375 C 23.828125 -89.34375 25.734375 -88.585938 27.234375 -87.078125 C 28.734375 -85.578125 29.484375 -83.671875 29.484375 -81.359375 L 29.484375 -6.9375 C 29.484375 -4.738281 28.703125 -2.882812 27.140625 -1.375 C 25.585938 0.125 23.710938 0.875 21.515625 0.875 Z M 21.515625 0.875 "/></g></g></g><g fill="#ffffff" fill-opacity="1"><g transform="translate(1290.56756, 247.970491)"><g><path d="M 52.734375 1.734375 C 43.828125 1.734375 36.019531 -0.171875 29.3125 -3.984375 C 22.601562 -7.804688 17.425781 -13.210938 13.78125 -20.203125 C 10.144531 -27.203125 8.328125 -35.210938 8.328125 -44.234375 C 8.328125 -53.253906 10.144531 -61.257812 13.78125 -68.25 C 17.425781 -75.25 22.601562 -80.65625 29.3125 -84.46875 C 36.019531 -88.289062 43.828125 -90.203125 52.734375 -90.203125 C 61.523438 -90.203125 69.273438 -88.289062 75.984375 -84.46875 C 82.691406 -80.65625 87.894531 -75.25 91.59375 -68.25 C 95.289062 -61.257812 97.140625 -53.253906 97.140625 -44.234375 C 97.140625 -35.210938 95.289062 -27.203125 91.59375 -20.203125 C 87.894531 -13.210938 82.691406 -7.804688 75.984375 -3.984375 C 69.273438 -0.171875 61.523438 1.734375 52.734375 1.734375 Z M 52.734375 -12.65625 C 57.472656 -12.65625 62.007812 -13.753906 66.34375 -15.953125 C 70.6875 -18.148438 74.273438 -21.617188 77.109375 -26.359375 C 79.941406 -31.109375 81.359375 -37.125 81.359375 -44.40625 C 81.359375 -51.570312 79.941406 -57.523438 77.109375 -62.265625 C 74.273438 -67.015625 70.6875 -70.457031 66.34375 -72.59375 C 62.007812 -74.738281 57.472656 -75.8125 52.734375 -75.8125 C 47.878906 -75.8125 43.28125 -74.738281 38.9375 -72.59375 C 34.601562 -70.457031 31.046875 -67.015625 28.265625 -62.265625 C 25.492188 -57.523438 24.109375 -51.570312 24.109375 -44.40625 C 24.109375 -37.125 25.492188 -31.109375 28.265625 -26.359375 C 31.046875 -21.617188 34.601562 -18.148438 38.9375 -15.953125 C 43.28125 -13.753906 47.878906 -12.65625 52.734375 -12.65625 Z M 52.734375 -12.65625 "/></g></g></g><g fill="#ffffff" fill-opacity="1"><g transform="translate(1383.186796, 247.970491)"><g><path d="M 21.515625 0.875 C 19.316406 0.875 17.460938 0.125 15.953125 -1.375 C 14.453125 -2.882812 13.703125 -4.738281 13.703125 -6.9375 L 13.703125 -81.359375 C 13.703125 -83.554688 14.453125 -85.4375 15.953125 -87 C 17.460938 -88.5625 19.316406 -89.34375 21.515625 -89.34375 C 23.710938 -89.34375 25.585938 -88.5625 27.140625 -87 C 28.703125 -85.4375 29.484375 -83.554688 29.484375 -81.359375 L 29.484375 -74.25 C 33.878906 -79.101562 38.617188 -82.972656 43.703125 -85.859375 C 48.796875 -88.753906 54.8125 -90.203125 61.75 -90.203125 C 68.113281 -90.203125 73.632812 -88.695312 78.3125 -85.6875 C 83 -82.6875 86.585938 -78.582031 89.078125 -73.375 C 91.566406 -68.175781 92.8125 -62.453125 92.8125 -56.203125 L 92.8125 -6.9375 C 92.8125 -4.738281 92.03125 -2.882812 90.46875 -1.375 C 88.90625 0.125 87.023438 0.875 84.828125 0.875 C 82.628906 0.875 80.773438 0.125 79.265625 -1.375 C 77.765625 -2.882812 77.015625 -4.738281 77.015625 -6.9375 L 77.015625 -54.46875 C 77.015625 -68.570312 70.65625 -75.625 57.9375 -75.625 C 52.15625 -75.625 46.976562 -74.117188 42.40625 -71.109375 C 37.84375 -68.109375 33.535156 -64.066406 29.484375 -58.984375 L 29.484375 -6.9375 C 29.484375 -4.738281 28.703125 -2.882812 27.140625 -1.375 C 25.585938 0.125 23.710938 0.875 21.515625 0.875 Z M 21.515625 0.875 "/></g></g></g><g fill="#f37033" fill-opacity="1"><g transform="translate(647.778031, 312.306907)"><g><path d="M 13.65625 0.53125 C 8.445312 0.53125 5.84375 -1.820312 5.84375 -6.53125 L 5.84375 -23.140625 L 2.03125 -23.140625 C 1.75 -23.140625 1.507812 -23.238281 1.3125 -23.4375 C 1.113281 -23.632812 1.015625 -23.875 1.015625 -24.15625 C 1.015625 -24.507812 1.175781 -24.8125 1.5 -25.0625 L 8.78125 -32.1875 C 9.101562 -32.507812 9.40625 -32.671875 9.6875 -32.671875 C 9.976562 -32.671875 10.222656 -32.5625 10.421875 -32.34375 C 10.617188 -32.132812 10.71875 -31.890625 10.71875 -31.609375 L 10.71875 -27.3125 L 16.765625 -27.3125 C 17.367188 -27.3125 17.867188 -27.113281 18.265625 -26.71875 C 18.660156 -26.332031 18.859375 -25.835938 18.859375 -25.234375 C 18.859375 -24.660156 18.660156 -24.164062 18.265625 -23.75 C 17.867188 -23.34375 17.367188 -23.140625 16.765625 -23.140625 L 10.71875 -23.140625 L 10.71875 -6.96875 C 10.71875 -5.570312 11.046875 -4.6875 11.703125 -4.3125 C 12.359375 -3.9375 13.1875 -3.75 14.1875 -3.75 C 14.90625 -3.75 15.625 -3.859375 16.34375 -4.078125 C 16.476562 -4.109375 16.625 -4.140625 16.78125 -4.171875 C 16.945312 -4.210938 17.15625 -4.234375 17.40625 -4.234375 C 17.90625 -4.234375 18.351562 -4.046875 18.75 -3.671875 C 19.144531 -3.296875 19.34375 -2.835938 19.34375 -2.296875 C 19.34375 -1.484375 18.929688 -0.859375 18.109375 -0.421875 C 16.710938 0.210938 15.226562 0.53125 13.65625 0.53125 Z M 13.65625 0.53125 "/></g></g></g><g fill="#f37033" fill-opacity="1"><g transform="translate(678.505206, 312.306907)"><g><path d="M 6.640625 0.265625 C 5.960938 0.265625 5.390625 0.0351562 4.921875 -0.421875 C 4.460938 -0.890625 4.234375 -1.460938 4.234375 -2.140625 L 4.234375 -36.90625 C 4.234375 -37.582031 4.460938 -38.160156 4.921875 -38.640625 C 5.390625 -39.128906 5.960938 -39.375 6.640625 -39.375 C 7.316406 -39.375 7.894531 -39.128906 8.375 -38.640625 C 8.863281 -38.160156 9.109375 -37.582031 9.109375 -36.90625 L 9.109375 -22.921875 C 10.460938 -24.421875 11.925781 -25.617188 13.5 -26.515625 C 15.070312 -27.410156 16.925781 -27.859375 19.0625 -27.859375 C 21.03125 -27.859375 22.738281 -27.390625 24.1875 -26.453125 C 25.632812 -25.523438 26.738281 -24.257812 27.5 -22.65625 C 28.269531 -21.050781 28.65625 -19.285156 28.65625 -17.359375 L 28.65625 -2.140625 C 28.65625 -1.460938 28.410156 -0.890625 27.921875 -0.421875 C 27.441406 0.0351562 26.863281 0.265625 26.1875 0.265625 C 25.507812 0.265625 24.9375 0.0351562 24.46875 -0.421875 C 24.007812 -0.890625 23.78125 -1.460938 23.78125 -2.140625 L 23.78125 -16.8125 C 23.78125 -21.175781 21.816406 -23.359375 17.890625 -23.359375 C 16.109375 -23.359375 14.507812 -22.890625 13.09375 -21.953125 C 11.6875 -21.023438 10.359375 -19.78125 9.109375 -18.21875 L 9.109375 -2.140625 C 9.109375 -1.460938 8.863281 -0.890625 8.375 -0.421875 C 7.894531 0.0351562 7.316406 0.265625 6.640625 0.265625 Z M 6.640625 0.265625 "/></g></g></g><g fill="#f37033" fill-opacity="1"><g transform="translate(721.378917, 312.306907)"><g><path d="M 6.53125 -32.890625 C 5.78125 -32.890625 5.132812 -33.15625 4.59375 -33.6875 C 4.0625 -34.226562 3.796875 -34.875 3.796875 -35.625 L 3.796875 -35.828125 C 3.796875 -36.578125 4.0625 -37.21875 4.59375 -37.75 C 5.132812 -38.289062 5.78125 -38.5625 6.53125 -38.5625 L 6.859375 -38.5625 C 7.609375 -38.5625 8.25 -38.289062 8.78125 -37.75 C 9.320312 -37.21875 9.59375 -36.578125 9.59375 -35.828125 L 9.59375 -35.625 C 9.59375 -34.875 9.320312 -34.226562 8.78125 -33.6875 C 8.25 -33.15625 7.609375 -32.890625 6.859375 -32.890625 Z M 6.640625 0.265625 C 5.960938 0.265625 5.390625 0.0351562 4.921875 -0.421875 C 4.460938 -0.890625 4.234375 -1.460938 4.234375 -2.140625 L 4.234375 -25.125 C 4.234375 -25.800781 4.460938 -26.378906 4.921875 -26.859375 C 5.390625 -27.335938 5.960938 -27.578125 6.640625 -27.578125 C 7.359375 -27.578125 7.945312 -27.34375 8.40625 -26.875 C 8.875 -26.414062 9.109375 -25.832031 9.109375 -25.125 L 9.109375 -2.140625 C 9.109375 -1.460938 8.863281 -0.890625 8.375 -0.421875 C 7.894531 0.0351562 7.316406 0.265625 6.640625 0.265625 Z M 6.640625 0.265625 "/></g></g></g><g fill="#f37033" fill-opacity="1"><g transform="translate(744.989423, 312.306907)"><g><path d="M 6.640625 0.265625 C 5.960938 0.265625 5.390625 0.0351562 4.921875 -0.421875 C 4.460938 -0.890625 4.234375 -1.460938 4.234375 -2.140625 L 4.234375 -25.125 C 4.234375 -25.800781 4.460938 -26.378906 4.921875 -26.859375 C 5.390625 -27.335938 5.960938 -27.578125 6.640625 -27.578125 C 7.316406 -27.578125 7.894531 -27.335938 8.375 -26.859375 C 8.863281 -26.378906 9.109375 -25.800781 9.109375 -25.125 L 9.109375 -22.921875 C 10.460938 -24.421875 11.925781 -25.617188 13.5 -26.515625 C 15.070312 -27.410156 16.925781 -27.859375 19.0625 -27.859375 C 21.03125 -27.859375 22.738281 -27.390625 24.1875 -26.453125 C 25.632812 -25.523438 26.738281 -24.257812 27.5 -22.65625 C 28.269531 -21.050781 28.65625 -19.285156 28.65625 -17.359375 L 28.65625 -2.140625 C 28.65625 -1.460938 28.410156 -0.890625 27.921875 -0.421875 C 27.441406 0.0351562 26.863281 0.265625 26.1875 0.265625 C 25.507812 0.265625 24.9375 0.0351562 24.46875 -0.421875 C 24.007812 -0.890625 23.78125 -1.460938 23.78125 -2.140625 L 23.78125 -16.8125 C 23.78125 -21.175781 21.816406 -23.359375 17.890625 -23.359375 C 16.109375 -23.359375 14.507812 -22.890625 13.09375 -21.953125 C 11.6875 -21.023438 10.359375 -19.78125 9.109375 -18.21875 L 9.109375 -2.140625 C 9.109375 -1.460938 8.863281 -0.890625 8.375 -0.421875 C 7.894531 0.0351562 7.316406 0.265625 6.640625 0.265625 Z M 6.640625 0.265625 "/></g></g></g><g fill="#f37033" fill-opacity="1"><g transform="translate(787.86313, 312.306907)"><g><path d="M 6.640625 0.265625 C 5.960938 0.265625 5.390625 0.0351562 4.921875 -0.421875 C 4.460938 -0.890625 4.234375 -1.460938 4.234375 -2.140625 L 4.234375 -36.90625 C 4.234375 -37.582031 4.460938 -38.160156 4.921875 -38.640625 C 5.390625 -39.128906 5.960938 -39.375 6.640625 -39.375 C 7.316406 -39.375 7.894531 -39.128906 8.375 -38.640625 C 8.863281 -38.160156 9.109375 -37.582031 9.109375 -36.90625 L 9.109375 -15 L 21.859375 -26.78125 C 22.390625 -27.25 22.921875 -27.484375 23.453125 -27.484375 C 24.273438 -27.484375 24.875 -27.25 25.25 -26.78125 C 25.625 -26.3125 25.8125 -25.757812 25.8125 -25.125 C 25.8125 -24.507812 25.507812 -23.898438 24.90625 -23.296875 L 17.1875 -16.390625 L 26.890625 -3.53125 C 27.242188 -3.070312 27.421875 -2.59375 27.421875 -2.09375 C 27.421875 -1.375 27.1875 -0.800781 26.71875 -0.375 C 26.257812 0.0507812 25.671875 0.265625 24.953125 0.265625 C 24.597656 0.265625 24.242188 0.175781 23.890625 0 C 23.535156 -0.175781 23.234375 -0.425781 22.984375 -0.75 L 13.765625 -13.28125 L 9.109375 -9.046875 L 9.109375 -2.140625 C 9.109375 -1.460938 8.863281 -0.890625 8.375 -0.421875 C 7.894531 0.0351562 7.316406 0.265625 6.640625 0.265625 Z M 6.640625 0.265625 "/></g></g></g><g fill="#f37033" fill-opacity="1"><g transform="translate(827.312266, 312.306907)"><g/></g></g><g fill="#f37033" fill-opacity="1"><g transform="translate(851.511364, 312.306907)"><g><path d="M 5.84375 -12.859375 C 5.226562 -12.859375 4.71875 -13.0625 4.3125 -13.46875 C 3.90625 -13.882812 3.703125 -14.394531 3.703125 -15 C 3.703125 -15.601562 3.90625 -16.117188 4.3125 -16.546875 C 4.71875 -16.972656 5.226562 -17.1875 5.84375 -17.1875 L 41.828125 -17.1875 C 42.441406 -17.1875 42.960938 -16.972656 43.390625 -16.546875 C 43.816406 -16.117188 44.03125 -15.601562 44.03125 -15 C 44.03125 -14.394531 43.816406 -13.882812 43.390625 -13.46875 C 42.960938 -13.0625 42.441406 -12.859375 41.828125 -12.859375 Z M 5.84375 -12.859375 "/></g></g></g><g fill="#f37033" fill-opacity="1"><g transform="translate(909.474588, 312.306907)"><g/></g></g><g fill="#f37033" fill-opacity="1"><g transform="translate(933.673686, 312.306907)"><g><path d="M 13.0625 0.53125 C 9.5 0.53125 6.253906 -0.269531 3.328125 -1.875 C 2.710938 -2.300781 2.40625 -2.890625 2.40625 -3.640625 C 2.40625 -4.210938 2.601562 -4.710938 3 -5.140625 C 3.394531 -5.566406 3.894531 -5.78125 4.5 -5.78125 C 4.820312 -5.78125 5.144531 -5.710938 5.46875 -5.578125 C 6.601562 -5.078125 7.742188 -4.679688 8.890625 -4.390625 C 10.035156 -4.109375 11.320312 -3.96875 12.75 -3.96875 C 16.707031 -3.96875 18.6875 -5.234375 18.6875 -7.765625 C 18.6875 -8.585938 18.234375 -9.210938 17.328125 -9.640625 C 16.421875 -10.066406 14.929688 -10.550781 12.859375 -11.09375 C 10.742188 -11.59375 9 -12.109375 7.625 -12.640625 C 6.257812 -13.171875 5.082031 -13.984375 4.09375 -15.078125 C 3.113281 -16.171875 2.625 -17.609375 2.625 -19.390625 C 2.625 -21.890625 3.523438 -23.925781 5.328125 -25.5 C 7.128906 -27.070312 9.707031 -27.859375 13.0625 -27.859375 C 15.8125 -27.859375 18.398438 -27.410156 20.828125 -26.515625 C 21.328125 -26.367188 21.710938 -26.097656 21.984375 -25.703125 C 22.253906 -25.316406 22.390625 -24.910156 22.390625 -24.484375 C 22.390625 -23.910156 22.179688 -23.40625 21.765625 -22.96875 C 21.359375 -22.539062 20.851562 -22.328125 20.25 -22.328125 C 20.070312 -22.328125 19.835938 -22.363281 19.546875 -22.4375 C 17.472656 -23.082031 15.4375 -23.40625 13.4375 -23.40625 C 11.507812 -23.40625 10 -23.054688 8.90625 -22.359375 C 7.820312 -21.660156 7.28125 -20.757812 7.28125 -19.65625 C 7.28125 -18.582031 7.78125 -17.796875 8.78125 -17.296875 C 9.78125 -16.796875 11.332031 -16.316406 13.4375 -15.859375 C 15.550781 -15.316406 17.265625 -14.785156 18.578125 -14.265625 C 19.898438 -13.753906 21.035156 -12.941406 21.984375 -11.828125 C 22.929688 -10.722656 23.40625 -9.242188 23.40625 -7.390625 C 23.40625 -5.109375 22.503906 -3.21875 20.703125 -1.71875 C 18.898438 -0.21875 16.351562 0.53125 13.0625 0.53125 Z M 13.0625 0.53125 "/></g></g></g><g fill="#f37033" fill-opacity="1"><g transform="translate(969.644766, 312.306907)"><g><path d="M 6.640625 0.265625 C 5.960938 0.265625 5.390625 0.0351562 4.921875 -0.421875 C 4.460938 -0.890625 4.234375 -1.460938 4.234375 -2.140625 L 4.234375 -25.125 C 4.234375 -25.800781 4.460938 -26.378906 4.921875 -26.859375 C 5.390625 -27.335938 5.960938 -27.578125 6.640625 -27.578125 C 7.316406 -27.578125 7.894531 -27.335938 8.375 -26.859375 C 8.863281 -26.378906 9.109375 -25.800781 9.109375 -25.125 L 9.109375 -22.921875 C 10.109375 -24.347656 11.3125 -25.523438 12.71875 -26.453125 C 14.132812 -27.390625 15.96875 -27.859375 18.21875 -27.859375 C 20.207031 -27.859375 21.914062 -27.320312 23.34375 -26.25 C 24.78125 -25.175781 25.800781 -23.867188 26.40625 -22.328125 C 28.625 -26.015625 31.910156 -27.859375 36.265625 -27.859375 C 38.265625 -27.859375 39.929688 -27.359375 41.265625 -26.359375 C 42.609375 -25.359375 43.597656 -24.070312 44.234375 -22.5 C 44.878906 -20.925781 45.203125 -19.28125 45.203125 -17.5625 L 45.203125 -2.140625 C 45.203125 -1.460938 44.960938 -0.890625 44.484375 -0.421875 C 44.003906 0.0351562 43.425781 0.265625 42.75 0.265625 C 42.0625 0.265625 41.484375 0.0351562 41.015625 -0.421875 C 40.554688 -0.890625 40.328125 -1.460938 40.328125 -2.140625 L 40.328125 -16.609375 C 40.328125 -18.921875 39.914062 -20.625 39.09375 -21.71875 C 38.28125 -22.8125 36.875 -23.359375 34.875 -23.359375 C 33.050781 -23.359375 31.539062 -22.882812 30.34375 -21.9375 C 29.144531 -20.988281 28.082031 -19.75 27.15625 -18.21875 L 27.15625 -2.140625 C 27.15625 -1.460938 26.910156 -0.890625 26.421875 -0.421875 C 25.941406 0.0351562 25.363281 0.265625 24.6875 0.265625 C 24.007812 0.265625 23.4375 0.0351562 22.96875 -0.421875 C 22.507812 -0.890625 22.28125 -1.460938 22.28125 -2.140625 L 22.28125 -16.609375 C 22.28125 -18.921875 21.867188 -20.625 21.046875 -21.71875 C 20.222656 -22.8125 18.8125 -23.359375 16.8125 -23.359375 C 15 -23.359375 13.492188 -22.882812 12.296875 -21.9375 C 11.097656 -20.988281 10.035156 -19.75 9.109375 -18.21875 L 9.109375 -2.140625 C 9.109375 -1.460938 8.863281 -0.890625 8.375 -0.421875 C 7.894531 0.0351562 7.316406 0.265625 6.640625 0.265625 Z M 6.640625 0.265625 "/></g></g></g><g fill="#f37033" fill-opacity="1"><g transform="translate(1029.052732, 312.306907)"><g><path d="M 11.1875 0.53125 C 9.625 0.53125 8.171875 0.210938 6.828125 -0.421875 C 5.492188 -1.066406 4.429688 -2.003906 3.640625 -3.234375 C 2.859375 -4.472656 2.46875 -5.894531 2.46875 -7.5 C 2.46875 -10.144531 3.507812 -12.25 5.59375 -13.8125 C 7.6875 -15.382812 10.75 -16.171875 14.78125 -16.171875 L 21.265625 -16.171875 L 21.265625 -16.609375 C 21.265625 -18.960938 20.679688 -20.65625 19.515625 -21.6875 C 18.359375 -22.726562 16.550781 -23.25 14.09375 -23.25 C 12.726562 -23.25 11.519531 -23.140625 10.46875 -22.921875 C 9.414062 -22.710938 8.25 -22.390625 6.96875 -21.953125 C 6.675781 -21.890625 6.441406 -21.859375 6.265625 -21.859375 C 5.734375 -21.859375 5.269531 -22.050781 4.875 -22.4375 C 4.476562 -22.832031 4.28125 -23.316406 4.28125 -23.890625 C 4.28125 -24.847656 4.742188 -25.523438 5.671875 -25.921875 C 8.710938 -27.210938 11.800781 -27.859375 14.9375 -27.859375 C 17.40625 -27.859375 19.488281 -27.359375 21.1875 -26.359375 C 22.882812 -25.359375 24.132812 -24.0625 24.9375 -22.46875 C 25.738281 -20.875 26.140625 -19.148438 26.140625 -17.296875 L 26.140625 -2.140625 C 26.140625 -1.460938 25.894531 -0.890625 25.40625 -0.421875 C 24.925781 0.0351562 24.347656 0.265625 23.671875 0.265625 C 22.992188 0.265625 22.421875 0.0351562 21.953125 -0.421875 C 21.492188 -0.890625 21.265625 -1.460938 21.265625 -2.140625 L 21.265625 -3.53125 C 18.617188 -0.820312 15.257812 0.53125 11.1875 0.53125 Z M 13.015625 -3.75 C 14.585938 -3.75 16.101562 -4.128906 17.5625 -4.890625 C 19.03125 -5.660156 20.265625 -6.617188 21.265625 -7.765625 L 21.265625 -12.265625 L 15.421875 -12.265625 C 10.035156 -12.265625 7.34375 -10.851562 7.34375 -8.03125 C 7.34375 -6.75 7.78125 -5.710938 8.65625 -4.921875 C 9.53125 -4.140625 10.984375 -3.75 13.015625 -3.75 Z M 13.015625 -3.75 "/></g></g></g><g fill="#f37033" fill-opacity="1"><g transform="translate(1069.411535, 312.306907)"><g><path d="M 6.640625 0.265625 C 5.960938 0.265625 5.390625 0.0351562 4.921875 -0.421875 C 4.460938 -0.890625 4.234375 -1.460938 4.234375 -2.140625 L 4.234375 -25.125 C 4.234375 -25.800781 4.460938 -26.378906 4.921875 -26.859375 C 5.390625 -27.335938 5.960938 -27.578125 6.640625 -27.578125 C 7.316406 -27.578125 7.894531 -27.335938 8.375 -26.859375 C 8.863281 -26.378906 9.109375 -25.800781 9.109375 -25.125 L 9.109375 -22.8125 C 11.609375 -26.175781 14.410156 -27.859375 17.515625 -27.859375 L 17.78125 -27.859375 C 18.457031 -27.859375 19.019531 -27.625 19.46875 -27.15625 C 19.914062 -26.6875 20.140625 -26.113281 20.140625 -25.4375 C 20.140625 -24.757812 19.90625 -24.207031 19.4375 -23.78125 C 18.976562 -23.351562 18.390625 -23.140625 17.671875 -23.140625 L 17.40625 -23.140625 C 15.695312 -23.140625 14.125 -22.71875 12.6875 -21.875 C 11.257812 -21.039062 10.066406 -19.890625 9.109375 -18.421875 L 9.109375 -2.140625 C 9.109375 -1.460938 8.863281 -0.890625 8.375 -0.421875 C 7.894531 0.0351562 7.316406 0.265625 6.640625 0.265625 Z M 6.640625 0.265625 "/></g></g></g><g fill="#f37033" fill-opacity="1"><g transform="translate(1100.192246, 312.306907)"><g><path d="M 13.65625 0.53125 C 8.445312 0.53125 5.84375 -1.820312 5.84375 -6.53125 L 5.84375 -23.140625 L 2.03125 -23.140625 C 1.75 -23.140625 1.507812 -23.238281 1.3125 -23.4375 C 1.113281 -23.632812 1.015625 -23.875 1.015625 -24.15625 C 1.015625 -24.507812 1.175781 -24.8125 1.5 -25.0625 L 8.78125 -32.1875 C 9.101562 -32.507812 9.40625 -32.671875 9.6875 -32.671875 C 9.976562 -32.671875 10.222656 -32.5625 10.421875 -32.34375 C 10.617188 -32.132812 10.71875 -31.890625 10.71875 -31.609375 L 10.71875 -27.3125 L 16.765625 -27.3125 C 17.367188 -27.3125 17.867188 -27.113281 18.265625 -26.71875 C 18.660156 -26.332031 18.859375 -25.835938 18.859375 -25.234375 C 18.859375 -24.660156 18.660156 -24.164062 18.265625 -23.75 C 17.867188 -23.34375 17.367188 -23.140625 16.765625 -23.140625 L 10.71875 -23.140625 L 10.71875 -6.96875 C 10.71875 -5.570312 11.046875 -4.6875 11.703125 -4.3125 C 12.359375 -3.9375 13.1875 -3.75 14.1875 -3.75 C 14.90625 -3.75 15.625 -3.859375 16.34375 -4.078125 C 16.476562 -4.109375 16.625 -4.140625 16.78125 -4.171875 C 16.945312 -4.210938 17.15625 -4.234375 17.40625 -4.234375 C 17.90625 -4.234375 18.351562 -4.046875 18.75 -3.671875 C 19.144531 -3.296875 19.34375 -2.835938 19.34375 -2.296875 C 19.34375 -1.484375 18.929688 -0.859375 18.109375 -0.421875 C 16.710938 0.210938 15.226562 0.53125 13.65625 0.53125 Z M 13.65625 0.53125 "/></g></g></g></svg>